<?xml version='1.0' encoding='utf-8'?>
<svg xmlns="http://www.w3.org/2000/svg" version="1.1" id="Layer_1" x="0px" y="0px" width="2000px" height="2000px" viewBox="0 0 2000 2000" enable-background="new 0 0 2000 2000"> <g> <g> <rect x="766.3920898" y="865.6005859" fill="#12A2DC" width="514.6088867" height="290.4599609"/> <g> <polygon fill="#DD3891" points="766.3920898,1085.7998047 986.5917969,865.6005859 948.9433594,865.6005859 766.3920898,1048.1513672 "/> </g> <g> <polygon fill="#8A298C" points="766.3920898,1042.4423828 943.2324219,865.6005859 905.5839844,865.6005859 766.3920898,1004.7939453 "/> </g> <g> <polygon fill="#12A2DC" points="766.3920898,865.6005859 766.3920898,870.3818359 771.1733398,865.6005859 "/> </g> <polygon fill="#12A2DC" points="766.3920898,999.0922852 899.8823242,865.6005859 862.2265625,865.6005859 766.3920898,961.4384766 "/> <g> <polygon fill="#C81A8B" points="766.3920898,1129.1435547 1029.9423828,865.6005859 992.2866211,865.6005859 766.3920898,1091.4951172 "/> </g> <g> <polygon fill="#12A2DC" points="782.8330078,1156.0605469 1073.2929688,865.6005859 1035.6435547,865.6005859 766.3920898,1134.8515625 766.3920898,1156.0605469 "/> </g> <g> <polygon fill="#0275BB" points="826.1831055,1156.0605469 1116.6425781,865.6005859 1078.9941406,865.6005859 788.5341797,1156.0605469 "/> </g> <g> <polygon fill="#0275BB" points="999.59375,1156.0605469 1281.0009766,874.6577148 1281.0009766,865.6005859 1252.4101563,865.6005859 961.9448242,1156.0605469 "/> </g> <g> <polygon fill="#0275BB" points="766.3920898,911.9814453 812.7734375,865.6005859 775.1313477,865.6005859 766.3920898,874.3398438 "/> </g> <g> <polygon fill="#12A2DC" points="1042.9433594,1156.0605469 1281.0009766,918.0083008 1281.0009766,880.359375 1005.3017578,1156.0605469 "/> </g> <g> <polygon fill="#DD3891" points="1086.2949219,1156.0605469 1281.0009766,961.3583984 1281.0009766,923.7167969 1048.6523438,1156.0605469 "/> </g> <g> <polygon fill="#DD3891" points="766.3920898,955.9233398 856.71875,865.6005859 819.0698242,865.6005859 766.3920898,918.2744141 "/> </g> <g> <polygon fill="#DD3891" points="1129.6445313,1156.0605469 1281.0009766,1004.7109375 1281.0009766,967.0605469 1092.0029297,1156.0605469 "/> </g> <g> <polygon fill="#8A298C" points="1173.0019531,1156.0605469 1281.0009766,1048.0615234 1281.0009766,1010.4199219 1135.3603516,1156.0605469 "/> </g> <polygon fill="#12A2DC" points="1216.3525391,1156.0605469 1281.0009766,1091.4121094 1281.0009766,1053.7626953 1178.7041016,1156.0605469 "/> </g> <linearGradient id="SVGID_1_" gradientUnits="userSpaceOnUse" x1="650.203125" y1="1096.2060547" x2="942.0580444" y2="834.8631592"> <stop offset="0.192308" style="stop-color:#FFFFFF"/> <stop offset="1" style="stop-color:#12A2DC"/> </linearGradient> <polygon fill-rule="evenodd" clip-rule="evenodd" fill="url(#SVGID_1_)" points="827.7880859,928.7749023 837.2128906,938.1958008 847.1630859,928.2490234 837.7456055,918.824707 "/> <linearGradient id="SVGID_2_" gradientUnits="userSpaceOnUse" x1="651.2387695" y1="1097.3632813" x2="943.1027832" y2="836.0123291"> <stop offset="0.192308" style="stop-color:#FFFFFF"/> <stop offset="1" style="stop-color:#12A2DC"/> </linearGradient> <polygon fill-rule="evenodd" clip-rule="evenodd" fill="url(#SVGID_2_)" points="812.503418,944.5444336 821.9345703,953.9619141 831.8779297,944.0253906 822.4536133,934.6010742 "/> <linearGradient id="SVGID_3_" gradientUnits="userSpaceOnUse" x1="664.6225586" y1="1112.2177734" x2="956.4013062" y2="850.9431152"> <stop offset="0.192308" style="stop-color:#FFFFFF"/> <stop offset="1" style="stop-color:#12A2DC"/> </linearGradient> <polygon fill-rule="evenodd" clip-rule="evenodd" fill="url(#SVGID_3_)" points="843.0664063,944.0253906 852.4912109,953.4428711 862.434082,943.4995117 853.0097656,934.0751953 "/> <linearGradient id="SVGID_4_" gradientUnits="userSpaceOnUse" x1="652.0981445" y1="1098.1376953" x2="943.7940674" y2="836.9371948"> <stop offset="0.192308" style="stop-color:#FFFFFF"/> <stop offset="1" style="stop-color:#12A2DC"/> </linearGradient> <polygon fill-rule="evenodd" clip-rule="evenodd" fill="url(#SVGID_4_)" points="797.7509766,959.2998047 807.175293,968.7280273 817.1186523,958.784668 807.6875,949.3603516 "/> <linearGradient id="SVGID_5_" gradientUnits="userSpaceOnUse" x1="638.6401367" y1="1083.2275391" x2="930.444458" y2="821.9299927"> <stop offset="0.192308" style="stop-color:#FFFFFF"/> <stop offset="1" style="stop-color:#12A2DC"/> </linearGradient> <path fill-rule="evenodd" clip-rule="evenodd" fill="url(#SVGID_5_)" d="M767.8378906,959.1308594 c3.1347656,3.1445313,6.2695313,6.2753906,9.4179688,9.4169922c3.3071289-3.3212891,6.621582-6.6220703,9.9428711-9.9365234 c-3.1342773-3.1479492-6.2758789-6.2822266-9.4243164-9.4169922 C774.4599609,952.5019531,771.1455078,955.8232422,767.8378906,959.1308594z"/> <linearGradient id="SVGID_6_" gradientUnits="userSpaceOnUse" x1="637.90625" y1="1082.3183594" x2="929.6237793" y2="821.0985107"> <stop offset="0.192308" style="stop-color:#FFFFFF"/> <stop offset="1" style="stop-color:#12A2DC"/> </linearGradient> <polygon fill-rule="evenodd" clip-rule="evenodd" fill="url(#SVGID_6_)" points="782.7148438,944.2470703 792.1396484,953.6611328 802.0688477,943.7177734 792.6650391,934.2900391 "/> <linearGradient id="SVGID_7_" gradientUnits="userSpaceOnUse" x1="695.5932617" y1="1146.8525391" x2="987.4180908" y2="885.5366821"> <stop offset="0.192308" style="stop-color:#FFFFFF"/> <stop offset="1" style="stop-color:#12A2DC"/> </linearGradient> <path fill-rule="evenodd" clip-rule="evenodd" fill="url(#SVGID_7_)" d="M847.6679688,1019.0820313l-0.0068359-0.0058594 c-3.1347656-3.1347656-6.269043-6.2832031-9.4033203-9.4179688c-3.3212891,3.3144531-6.6357422,6.6357422-9.9501953,9.9570313 c3.1342773,3.1279297,6.2827148,6.2695313,9.4169922,9.4101563 C841.0458984,1025.6972656,844.3535156,1022.4042969,847.6679688,1019.0820313z"/> <linearGradient id="SVGID_8_" gradientUnits="userSpaceOnUse" x1="697.1113281" y1="1148.6191406" x2="989.0438232" y2="887.2067871"> <stop offset="0.192308" style="stop-color:#FFFFFF"/> <stop offset="1" style="stop-color:#12A2DC"/> </linearGradient> <path fill-rule="evenodd" clip-rule="evenodd" fill="url(#SVGID_8_)" d="M817.9140625,1048.8574219v-0.0078125 c-3.1552734-3.1337891-6.2895508-6.2685547-9.4306641-9.4033203c-3.3144531,3.3007813-6.6289063,6.6289063-9.9501953,9.9365234 c3.1342773,3.1416016,6.2895508,6.2900391,9.4238281,9.4238281 C811.2783203,1055.4863281,814.5927734,1052.1787109,817.9140625,1048.8574219z"/> <linearGradient id="SVGID_9_" gradientUnits="userSpaceOnUse" x1="697.9755859" y1="1149.4111328" x2="989.6682739" y2="888.213562"> <stop offset="0.192308" style="stop-color:#FFFFFF"/> <stop offset="1" style="stop-color:#12A2DC"/> </linearGradient> <path fill-rule="evenodd" clip-rule="evenodd" fill="url(#SVGID_9_)" d="M803.0234375,1063.7480469h-0.0068359 c-3.1342773-3.1484375-6.2758789-6.2832031-9.4033203-9.4179688c-3.3349609,3.3076172-6.6425781,6.6289063-9.9570313,9.9433594 c3.1416016,3.1347656,6.2827148,6.2832031,9.4169922,9.4248047 C796.3945313,1070.3691406,799.7089844,1067.0693359,803.0234375,1063.7480469z"/> <linearGradient id="SVGID_10_" gradientUnits="userSpaceOnUse" x1="712.8999023" y1="1166.1308594" x2="1004.6635742" y2="904.869751"> <stop offset="0.192308" style="stop-color:#FFFFFF"/> <stop offset="1" style="stop-color:#12A2DC"/> </linearGradient> <path fill-rule="evenodd" clip-rule="evenodd" fill="url(#SVGID_10_)" d="M803.1621094,1093.7021484v-0.0068359 c-3.1210938-3.1347656-6.269043-6.2695313-9.4106445-9.4179688c-3.3212891,3.3076172-6.621582,6.6367188-9.9360352,9.9570313 c3.1342773,3.1347656,6.2685547,6.2832031,9.4101563,9.4248047 C796.546875,1100.3310547,799.8613281,1097.0097656,803.1621094,1093.7021484z"/> <linearGradient id="SVGID_11_" gradientUnits="userSpaceOnUse" x1="694.8383789" y1="1145.9609375" x2="986.6156616" y2="884.6876221"> <stop offset="0.192308" style="stop-color:#FFFFFF"/> <stop offset="1" style="stop-color:#12A2DC"/> </linearGradient> <polygon fill-rule="evenodd" clip-rule="evenodd" fill="url(#SVGID_11_)" points="862.5517578,1004.1914063 853.1274414,994.7675781 843.1914063,1004.7109375 852.6152344,1014.1347656 "/> <linearGradient id="SVGID_12_" gradientUnits="userSpaceOnUse" x1="696.3671875" y1="1147.7226563" x2="988.2047119" y2="886.3953857"> <stop offset="0.192308" style="stop-color:#FFFFFF"/> <stop offset="1" style="stop-color:#12A2DC"/> </linearGradient> <path fill-rule="evenodd" clip-rule="evenodd" fill="url(#SVGID_12_)" d="M832.7841797,1033.9726563v-0.0058594 c-3.1347656-3.1416016-6.2758789-6.2695313-9.4243164-9.4111328c-3.3071289,3.3076172-6.6147461,6.6357422-9.9360352,9.9433594 c3.1411133,3.1347656,6.2827148,6.2763672,9.4306641,9.4111328 C826.1621094,1040.6015625,829.4697266,1037.2871094,832.7841797,1033.9726563z"/> <linearGradient id="SVGID_13_" gradientUnits="userSpaceOnUse" x1="625.9716797" y1="1069.1035156" x2="917.8043213" y2="807.7806396"> <stop offset="0.192308" style="stop-color:#FFFFFF"/> <stop offset="1" style="stop-color:#12A2DC"/> </linearGradient> <path fill-rule="evenodd" clip-rule="evenodd" fill="url(#SVGID_13_)" d="M766.3920898,937.8325195v11.0639648 c1.847168-1.840332,3.6879883-3.6875,5.5356445-5.5351563l-0.0068359-0.0107422 C770.0800781,941.5136719,768.2324219,939.6728516,766.3920898,937.8325195z"/> <linearGradient id="SVGID_14_" gradientUnits="userSpaceOnUse" x1="713.6582031" y1="1167.0146484" x2="1005.5150146" y2="905.670105"> <stop offset="0.192308" style="stop-color:#FFFFFF"/> <stop offset="1" style="stop-color:#12A2DC"/> </linearGradient> <path fill-rule="evenodd" clip-rule="evenodd" fill="url(#SVGID_14_)" d="M788.2919922,1108.5859375 c-3.1416016-3.1416016-6.2827148-6.2695313-9.4238281-9.4101563c-3.3217773,3.3066406-6.6289063,6.6289063-9.9365234,9.9433594 c3.1342773,3.1337891,6.2758789,6.2753906,9.4101563,9.4238281 C781.65625,1115.2148438,784.9707031,1111.9072266,788.2919922,1108.5859375z"/> <linearGradient id="SVGID_15_" gradientUnits="userSpaceOnUse" x1="715.519043" y1="1169.0332031" x2="1007.2143555" y2="907.833252"> <stop offset="0.192308" style="stop-color:#FFFFFF"/> <stop offset="1" style="stop-color:#12A2DC"/> </linearGradient> <path fill-rule="evenodd" clip-rule="evenodd" fill="url(#SVGID_15_)" d="M773.4082031,1123.4833984 c-2.3457031-2.3457031-4.6777344-4.6845703-7.0161133-7.0166016v14.0263672 c2.3383789-2.3320313,4.684082-4.6708984,7.0229492-7.0097656H773.4082031z"/> <linearGradient id="SVGID_16_" gradientUnits="userSpaceOnUse" x1="700.6040039" y1="1152.4423828" x2="992.4666138" y2="891.0926514"> <stop offset="0.192308" style="stop-color:#FFFFFF"/> <stop offset="1" style="stop-color:#12A2DC"/> </linearGradient> <path fill-rule="evenodd" clip-rule="evenodd" fill="url(#SVGID_16_)" d="M773.2490234,1093.5224609 c-2.2832031-2.2900391-4.5664063-4.5742188-6.8569336-6.8574219v13.7353516 c2.2905273-2.2978516,4.5737305-4.5878906,6.8569336-6.8710938V1093.5224609z"/> <linearGradient id="SVGID_17_" gradientUnits="userSpaceOnUse" x1="698.7319336" y1="1150.2900391" x2="990.4824219" y2="889.0406494"> <stop offset="0.192308" style="stop-color:#FFFFFF"/> <stop offset="1" style="stop-color:#12A2DC"/> </linearGradient> <path fill-rule="evenodd" clip-rule="evenodd" fill="url(#SVGID_17_)" d="M788.1464844,1078.6386719 c-3.1552734-3.1416016-6.2895508-6.2763672-9.4306641-9.4179688c-3.3144531,3.3144531-6.6289063,6.6289063-9.9365234,9.9433594 c3.1416016,3.1279297,6.2758789,6.2695313,9.4169922,9.4179688 C781.5107422,1085.2675781,784.8251953,1081.953125,788.1464844,1078.6386719z"/> <linearGradient id="SVGID_18_" gradientUnits="userSpaceOnUse" x1="694.1396484" y1="1145.0449219" x2="985.8023071" y2="883.8742676"> <stop offset="0.192308" style="stop-color:#FFFFFF"/> <stop offset="1" style="stop-color:#12A2DC"/> </linearGradient> <polygon fill-rule="evenodd" clip-rule="evenodd" fill="url(#SVGID_18_)" points="857.9433594,989.9516602 867.3676758,999.3759766 877.3110352,989.4326172 867.8935547,980.0083008 "/> <linearGradient id="SVGID_19_" gradientUnits="userSpaceOnUse" x1="655.8227539" y1="1102.4648438" x2="947.6941528" y2="841.1072388"> <stop offset="0.192308" style="stop-color:#FFFFFF"/> <stop offset="1" style="stop-color:#12A2DC"/> </linearGradient> <path fill-rule="evenodd" clip-rule="evenodd" fill="url(#SVGID_19_)" d="M766.3920898,1009.5332031 c2.0273438-2.0273438,4.0478516-4.0546875,6.0751953-6.0820313v-0.0068359 c-2.0273438-2.0205078-4.0478516-4.0410156-6.0751953-6.0683594V1009.5332031z"/> <linearGradient id="SVGID_20_" gradientUnits="userSpaceOnUse" x1="670.8608398" y1="1119.1289063" x2="962.552002" y2="857.9326782"> <stop offset="0.192308" style="stop-color:#FFFFFF"/> <stop offset="1" style="stop-color:#12A2DC"/> </linearGradient> <path fill-rule="evenodd" clip-rule="evenodd" fill="url(#SVGID_20_)" d="M766.3920898,1027.1230469v12.9257813 c2.1586914-2.1523438,4.3110352-4.3046875,6.4555664-6.4628906 C770.6958008,1031.4267578,768.5439453,1029.2753906,766.3920898,1027.1230469z"/> <linearGradient id="SVGID_21_" gradientUnits="userSpaceOnUse" x1="667.9072266" y1="1116.0390625" x2="959.8601074" y2="854.6085205"> <stop offset="0.192308" style="stop-color:#FFFFFF"/> <stop offset="1" style="stop-color:#12A2DC"/> </linearGradient> <path fill-rule="evenodd" clip-rule="evenodd" fill="url(#SVGID_21_)" d="M802.6289063,1003.8046875h-0.0136719 c-3.1342773-3.1416016-6.2685547-6.2763672-9.4033203-9.4179688c-3.3212891,3.3144531-6.6357422,6.6357422-9.9570313,9.9433594 c3.1416016,3.1416016,6.2827148,6.2900391,9.4311523,9.4248047 C796.0004883,1010.4335938,799.3076172,1007.1259766,802.6289063,1003.8046875z"/> <linearGradient id="SVGID_22_" gradientUnits="userSpaceOnUse" x1="668.7763672" y1="1116.8105469" x2="960.5021973" y2="855.583313"> <stop offset="0.192308" style="stop-color:#FFFFFF"/> <stop offset="1" style="stop-color:#12A2DC"/> </linearGradient> <path fill-rule="evenodd" clip-rule="evenodd" fill="url(#SVGID_22_)" d="M768.3847656,1019.2207031 c3.1347656,3.1484375,6.2763672,6.2763672,9.4033203,9.4179688c3.3212891-3.3076172,6.6357422-6.6220703,9.9570313-9.9365234 v-0.0068359c-3.1479492-3.1484375-6.2890625-6.2832031-9.4238281-9.4179688 C775,1012.5849609,771.6923828,1015.9140625,768.3847656,1019.2207031z"/> <linearGradient id="SVGID_23_" gradientUnits="userSpaceOnUse" x1="692.3720703" y1="1143.3242188" x2="984.2359619" y2="881.9733276"> <stop offset="0.192308" style="stop-color:#FFFFFF"/> <stop offset="1" style="stop-color:#12A2DC"/> </linearGradient> <polygon fill-rule="evenodd" clip-rule="evenodd" fill="url(#SVGID_23_)" points="908.8916016,957.8505859 899.4667969,948.4296875 889.5307617,958.3798828 898.9345703,967.8076172 "/> <linearGradient id="SVGID_24_" gradientUnits="userSpaceOnUse" x1="691.6479492" y1="1142.3525391" x2="983.3991699" y2="881.1025391"> <stop offset="0.192308" style="stop-color:#FFFFFF"/> <stop offset="1" style="stop-color:#12A2DC"/> </linearGradient> <polygon fill-rule="evenodd" clip-rule="evenodd" fill="url(#SVGID_24_)" points="914.4755859,952.2666016 924.4189453,942.3232422 915.0083008,932.8989258 905.0649414,942.8422852 "/> <linearGradient id="SVGID_25_" gradientUnits="userSpaceOnUse" x1="693.0263672" y1="1143.9472656" x2="984.815979" y2="882.6629028"> <stop offset="0.192308" style="stop-color:#FFFFFF"/> <stop offset="1" style="stop-color:#12A2DC"/> </linearGradient> <polygon fill-rule="evenodd" clip-rule="evenodd" fill="url(#SVGID_25_)" points="873.2285156,974.1875 882.6386719,983.5996094 892.5961914,973.6582031 883.171875,964.2407227 "/> <linearGradient id="SVGID_26_" gradientUnits="userSpaceOnUse" x1="683.5683594" y1="1133.3808594" x2="975.3556519" y2="872.0985718"> <stop offset="0.192308" style="stop-color:#FFFFFF"/> <stop offset="1" style="stop-color:#12A2DC"/> </linearGradient> <path fill-rule="evenodd" clip-rule="evenodd" fill="url(#SVGID_26_)" d="M787.7451172,1048.5039063v-0.0068359 c-3.1337891-3.1337891-6.2822266-6.2685547-9.4169922-9.4101563c-3.328125,3.3144531-6.6357422,6.6289063-9.9433594,9.9365234 c3.1347656,3.1347656,6.2763672,6.2822266,9.4106445,9.4238281 C781.109375,1055.1328125,784.4238281,1051.8251953,787.7451172,1048.5039063z"/> <linearGradient id="SVGID_27_" gradientUnits="userSpaceOnUse" x1="667.1533203" y1="1115.1484375" x2="959.0443115" y2="853.7733154"> <stop offset="0.192308" style="stop-color:#FFFFFF"/> <stop offset="1" style="stop-color:#12A2DC"/> </linearGradient> <path fill-rule="evenodd" clip-rule="evenodd" fill="url(#SVGID_27_)" d="M798.1386719,989.4462891 c3.1484375,3.1347656,6.2827148,6.2763672,9.4311523,9.4106445c3.3071289-3.3144531,6.621582-6.621582,9.9428711-9.9360352 v-0.0068359c-3.1479492-3.1347656-6.2822266-6.2763672-9.4238281-9.4111328 C804.7675781,982.8173828,801.4599609,986.125,798.1386719,989.4462891z"/> <linearGradient id="SVGID_28_" gradientUnits="userSpaceOnUse" x1="653.5849609" y1="1099.9345703" x2="945.4188232" y2="838.6105957"> <stop offset="0.192308" style="stop-color:#FFFFFF"/> <stop offset="1" style="stop-color:#12A2DC"/> </linearGradient> <path fill-rule="evenodd" clip-rule="evenodd" fill="url(#SVGID_28_)" d="M767.9833984,989.0869141 c3.1347656,3.1342773,6.2763672,6.2827148,9.4243164,9.4169922c3.3076172-3.3144531,6.6289063-6.6220703,9.9365234-9.9433594 c-3.1342773-3.1411133-6.2758789-6.2685547-9.4106445-9.4169922 C774.6123047,982.4511719,771.2978516,985.7724609,767.9833984,989.0869141z"/> <linearGradient id="SVGID_29_" gradientUnits="userSpaceOnUse" x1="640.9926758" y1="1085.7861328" x2="932.7158203" y2="824.5612793"> <stop offset="0.192308" style="stop-color:#FFFFFF"/> <stop offset="1" style="stop-color:#12A2DC"/> </linearGradient> <path fill-rule="evenodd" clip-rule="evenodd" fill="url(#SVGID_29_)" d="M766.3920898,979.4199219 c1.972168-1.9785156,3.9506836-3.9521484,5.9160156-5.9248047c-1.965332-1.9785156-3.9438477-3.9472656-5.9160156-5.9228516 V979.4199219z"/> <linearGradient id="SVGID_30_" gradientUnits="userSpaceOnUse" x1="666.4790039" y1="1114.1845703" x2="958.1555786" y2="853.0014648"> <stop offset="0.192308" style="stop-color:#FFFFFF"/> <stop offset="1" style="stop-color:#12A2DC"/> </linearGradient> <polygon fill-rule="evenodd" clip-rule="evenodd" fill="url(#SVGID_30_)" points="813.0292969,974.5507813 822.4536133,983.9663086 832.3828125,974.0244141 822.9794922,964.5966797 "/> <linearGradient id="SVGID_31_" gradientUnits="userSpaceOnUse" x1="652.8105469" y1="1099.0625" x2="944.6296387" y2="837.751709"> <stop offset="0.192308" style="stop-color:#FFFFFF"/> <stop offset="1" style="stop-color:#12A2DC"/> </linearGradient> <path fill-rule="evenodd" clip-rule="evenodd" fill="url(#SVGID_31_)" d="M782.8740234,974.1943359 c3.1347656,3.1362305,6.2763672,6.2915039,9.4106445,9.4257813c3.3144531-3.328125,6.6289063-6.6289063,9.9501953-9.9589844 c-3.1342773-3.1376953-6.2827148-6.2753906-9.4243164-9.4101563 C789.4960938,967.5585938,786.1816406,970.8798828,782.8740234,974.1943359z"/> <linearGradient id="SVGID_32_" gradientUnits="userSpaceOnUse" x1="682.0253906" y1="1131.640625" x2="973.7911987" y2="870.3775635"> <stop offset="0.192308" style="stop-color:#FFFFFF"/> <stop offset="1" style="stop-color:#12A2DC"/> </linearGradient> <path fill-rule="evenodd" clip-rule="evenodd" fill="url(#SVGID_32_)" d="M817.5126953,1018.7294922v-0.0068359 c-3.1411133-3.1416016-6.2822266-6.2695313-9.4238281-9.4169922c-3.3007813,3.3212891-6.6220703,6.6220703-9.9365234,9.9501953 c3.1347656,3.1269531,6.2758789,6.2753906,9.4174805,9.4169922 C810.8842773,1025.3447266,814.1914063,1022.0371094,817.5126953,1018.7294922z"/> <linearGradient id="SVGID_33_" gradientUnits="userSpaceOnUse" x1="682.7524414" y1="1132.5585938" x2="974.6495361" y2="871.1779785"> <stop offset="0.192308" style="stop-color:#FFFFFF"/> <stop offset="1" style="stop-color:#12A2DC"/> </linearGradient> <path fill-rule="evenodd" clip-rule="evenodd" fill="url(#SVGID_33_)" d="M802.6362305,1033.6132813h-0.0073242 c-3.1342773-3.1484375-6.2822266-6.2832031-9.4169922-9.4101563c-3.3212891,3.3007813-6.6357422,6.6220703-9.9570313,9.9433594 c3.1484375,3.1347656,6.2895508,6.2753906,9.4311523,9.4169922 C796.0004883,1040.2353516,799.3217773,1036.9277344,802.6362305,1033.6132813z"/> <linearGradient id="SVGID_34_" gradientUnits="userSpaceOnUse" x1="680.5112305" y1="1129.8701172" x2="972.211792" y2="868.6654053"> <stop offset="0.192308" style="stop-color:#FFFFFF"/> <stop offset="1" style="stop-color:#12A2DC"/> </linearGradient> <polygon fill-rule="evenodd" clip-rule="evenodd" fill="url(#SVGID_34_)" points="847.2802734,988.9482422 837.8564453,979.53125 827.9130859,989.4604492 837.3369141,998.8847656 "/> <linearGradient id="SVGID_35_" gradientUnits="userSpaceOnUse" x1="681.2475586" y1="1130.7773438" x2="973.0157471" y2="869.512146"> <stop offset="0.192308" style="stop-color:#FFFFFF"/> <stop offset="1" style="stop-color:#12A2DC"/> </linearGradient> <path fill-rule="evenodd" clip-rule="evenodd" fill="url(#SVGID_35_)" d="M832.4038086,1003.8388672 c-3.1552734-3.1484375-6.2895508-6.2827148-9.4243164-9.4238281c-3.3144531,3.3071289-6.6357422,6.6279297-9.9365234,9.9501953 c3.1347656,3.1347656,6.269043,6.2753906,9.4106445,9.4169922 C825.7607422,1010.4609375,829.0893555,1007.1533203,832.4038086,1003.8388672z"/> <linearGradient id="SVGID_36_" gradientUnits="userSpaceOnUse" x1="665.6572266" y1="1113.3701172" x2="957.4356079" y2="852.0958252"> <stop offset="0.192308" style="stop-color:#FFFFFF"/> <stop offset="1" style="stop-color:#12A2DC"/> </linearGradient> <polygon fill-rule="evenodd" clip-rule="evenodd" fill="url(#SVGID_36_)" points="827.78125,959.7949219 837.1992188,969.2050781 847.1494141,959.2758789 837.7246094,949.8515625 "/> <linearGradient id="SVGID_37_" gradientUnits="userSpaceOnUse" x1="685.6040039" y1="1135.7324219" x2="977.5288086" y2="874.3270264"> <stop offset="0.192308" style="stop-color:#FFFFFF"/> <stop offset="1" style="stop-color:#12A2DC"/> </linearGradient> <path fill-rule="evenodd" clip-rule="evenodd" fill="url(#SVGID_37_)" d="M772.8476563,1063.3876953 c-2.1445313-2.1591797-4.3037109-4.3105469-6.4555664-6.4628906v12.9326172 c2.1586914-2.1582031,4.3178711-4.3105469,6.4697266-6.4697266H772.8476563z"/> <linearGradient id="SVGID_38_" gradientUnits="userSpaceOnUse" x1="728.0683594" y1="1183.0380859" x2="1019.7756348" y2="921.8273926"> <stop offset="0.192308" style="stop-color:#FFFFFF"/> <stop offset="1" style="stop-color:#12A2DC"/> </linearGradient> <path fill-rule="evenodd" clip-rule="evenodd" fill="url(#SVGID_38_)" d="M784.2099609,1124.3623047 c3.1342773,3.1347656,6.2685547,6.2822266,9.4101563,9.4248047c3.3076172-3.3291016,6.6289063-6.6367188,9.9433594-9.9511719 c-3.1416016-3.140625-6.2900391-6.2822266-9.4243164-9.4101563 C790.824707,1117.7265625,787.5244141,1121.0478516,784.2099609,1124.3623047z"/> <linearGradient id="SVGID_39_" gradientUnits="userSpaceOnUse" x1="728.8208008" y1="1183.921875" x2="1020.6119385" y2="922.6361084"> <stop offset="0.192308" style="stop-color:#FFFFFF"/> <stop offset="1" style="stop-color:#12A2DC"/> </linearGradient> <path fill-rule="evenodd" clip-rule="evenodd" fill="url(#SVGID_39_)" d="M769.3120117,1139.2597656 c3.1484375,3.1210938,6.2827148,6.2695313,9.4243164,9.4179688c3.3076172-3.3291016,6.6357422-6.6289063,9.9433594-9.9433594 v-0.0136719c-3.1416016-3.1347656-6.2763672-6.2695313-9.4243164-9.4111328 C775.9477539,1132.6240234,772.6333008,1135.9384766,769.3120117,1139.2597656z"/> <linearGradient id="SVGID_40_" gradientUnits="userSpaceOnUse" x1="728.9042969" y1="1183.96875" x2="1020.5184326" y2="922.8414917"> <stop offset="0.192308" style="stop-color:#FFFFFF"/> <stop offset="1" style="stop-color:#12A2DC"/> </linearGradient> <polygon fill-rule="evenodd" clip-rule="evenodd" fill="url(#SVGID_40_)" points="766.3920898,1150.6357422 770.8134766,1150.6357422 766.3920898,1146.2070313 "/> <linearGradient id="SVGID_41_" gradientUnits="userSpaceOnUse" x1="719.2929688" y1="1173.3730469" x2="1011.1380005" y2="912.0390625"> <stop offset="0.192308" style="stop-color:#FFFFFF"/> <stop offset="1" style="stop-color:#12A2DC"/> </linearGradient> <polygon fill-rule="evenodd" clip-rule="evenodd" fill="url(#SVGID_41_)" points="951.4199219,957.1064453 960.8447266,966.5205078 970.7807617,956.5839844 961.3632813,947.1630859 "/> <linearGradient id="SVGID_42_" gradientUnits="userSpaceOnUse" x1="722.6435547" y1="1176.9833984" x2="1014.4036865" y2="915.7254028"> <stop offset="0.192308" style="stop-color:#FFFFFF"/> <stop offset="1" style="stop-color:#12A2DC"/> </linearGradient> <polygon fill-rule="evenodd" clip-rule="evenodd" fill="url(#SVGID_42_)" points="888.2578125,1020.265625 897.6816406,1029.6972656 907.625,1019.7402344 898.2011719,1010.3291016 "/> <linearGradient id="SVGID_43_" gradientUnits="userSpaceOnUse" x1="720.8461914" y1="1175.2744141" x2="1012.8127441" y2="913.831665"> <stop offset="0.192308" style="stop-color:#FFFFFF"/> <stop offset="1" style="stop-color:#12A2DC"/> </linearGradient> <polygon fill-rule="evenodd" clip-rule="evenodd" fill="url(#SVGID_43_)" points="919.8242188,988.6923828 929.2485352,998.1025391 939.2055664,988.1665039 929.78125,978.7421875 "/> <linearGradient id="SVGID_44_" gradientUnits="userSpaceOnUse" x1="721.581543" y1="1175.8320313" x2="1013.364502" y2="914.5535889"> <stop offset="0.192308" style="stop-color:#FFFFFF"/> <stop offset="1" style="stop-color:#12A2DC"/> </linearGradient> <polygon fill-rule="evenodd" clip-rule="evenodd" fill="url(#SVGID_44_)" points="903.5498047,1004.4892578 912.953125,1013.9140625 922.9101563,1003.9638672 913.4863281,994.5458984 "/> <linearGradient id="SVGID_45_" gradientUnits="userSpaceOnUse" x1="720.0908203" y1="1174.3320313" x2="1011.9827271" y2="912.9560547"> <stop offset="0.192308" style="stop-color:#FFFFFF"/> <stop offset="1" style="stop-color:#12A2DC"/> </linearGradient> <polygon fill-rule="evenodd" clip-rule="evenodd" fill="url(#SVGID_45_)" points="935.3652344,973.15625 944.7841797,982.5683594 954.7412109,972.6376953 945.3173828,963.2128906 "/> <linearGradient id="SVGID_46_" gradientUnits="userSpaceOnUse" x1="718.546875" y1="1172.3095703" x2="1010.2585449" y2="911.0949707"> <stop offset="0.192308" style="stop-color:#FFFFFF"/> <stop offset="1" style="stop-color:#12A2DC"/> </linearGradient> <polygon fill-rule="evenodd" clip-rule="evenodd" fill="url(#SVGID_46_)" points="977.9355469,930.5947266 967.9921875,940.5380859 977.402832,949.9624023 987.3457031,940.019043 "/> <linearGradient id="SVGID_47_" gradientUnits="userSpaceOnUse" x1="726.4853516" y1="1181.3330078" x2="1018.303772" y2="920.0228271"> <stop offset="0.192308" style="stop-color:#FFFFFF"/> <stop offset="1" style="stop-color:#12A2DC"/> </linearGradient> <path fill-rule="evenodd" clip-rule="evenodd" fill="url(#SVGID_47_)" d="M813.9633789,1094.5878906 c3.1479492,3.1347656,6.2827148,6.2685547,9.4379883,9.4169922c3.2939453-3.3212891,6.6152344-6.6289063,9.9296875-9.9433594 v-0.0136719c-3.1347656-3.1337891-6.2763672-6.2685547-9.4248047-9.4033203 C820.5922852,1087.9521484,817.2705078,1091.2734375,813.9633789,1094.5878906z"/> <linearGradient id="SVGID_48_" gradientUnits="userSpaceOnUse" x1="727.2670898" y1="1182.1943359" x2="1019.0698242" y2="920.8982544"> <stop offset="0.192308" style="stop-color:#FFFFFF"/> <stop offset="1" style="stop-color:#12A2DC"/> </linearGradient> <path fill-rule="evenodd" clip-rule="evenodd" fill="url(#SVGID_48_)" d="M799.0795898,1109.4716797 c3.1342773,3.1337891,6.2895508,6.2763672,9.4243164,9.4238281c3.3212891-3.3212891,6.6289063-6.6357422,9.9365234-9.9423828 c-3.1347656-3.1484375-6.2695313-6.2763672-9.4174805-9.4111328 C805.715332,1102.8427734,802.4008789,1106.1640625,799.0795898,1109.4716797z"/> <linearGradient id="SVGID_49_" gradientUnits="userSpaceOnUse" x1="725.6943359" y1="1180.4824219" x2="1017.5463257" y2="919.1422119"> <stop offset="0.192308" style="stop-color:#FFFFFF"/> <stop offset="1" style="stop-color:#12A2DC"/> </linearGradient> <path fill-rule="evenodd" clip-rule="evenodd" fill="url(#SVGID_49_)" d="M828.847168,1079.6972656 c3.1342773,3.1347656,6.2895508,6.2753906,9.4243164,9.4238281c3.3144531-3.328125,6.6357422-6.6357422,9.9365234-9.9570313 v-0.0068359c-3.1347656-3.1337891-6.2695313-6.2685547-9.4038086-9.4033203 C835.4755859,1073.0615234,832.168457,1076.3759766,828.847168,1079.6972656z"/> <linearGradient id="SVGID_50_" gradientUnits="userSpaceOnUse" x1="724.1069336" y1="1178.7724609" x2="1016.0073242" y2="917.388916"> <stop offset="0.192308" style="stop-color:#FFFFFF"/> <stop offset="1" style="stop-color:#12A2DC"/> </linearGradient> <path fill-rule="evenodd" clip-rule="evenodd" fill="url(#SVGID_50_)" d="M858.6147461,1049.9228516 c3.1342773,3.1279297,6.2758789,6.2753906,9.4243164,9.4238281c3.3212891-3.328125,6.6357422-6.6425781,9.9365234-9.9501953 v-0.0068359c-3.1347656-3.1416016-6.2763672-6.2685547-9.4179688-9.4238281 C865.2504883,1043.2871094,861.9360352,1046.6015625,858.6147461,1049.9228516z"/> <linearGradient id="SVGID_51_" gradientUnits="userSpaceOnUse" x1="724.9223633" y1="1179.6025391" x2="1016.7598267" y2="918.2753296"> <stop offset="0.192308" style="stop-color:#FFFFFF"/> <stop offset="1" style="stop-color:#12A2DC"/> </linearGradient> <path fill-rule="evenodd" clip-rule="evenodd" fill="url(#SVGID_51_)" d="M843.7446289,1064.7998047 c3.1274414,3.1416016,6.2758789,6.2958984,9.4038086,9.4238281c3.3144531-3.3144531,6.6357422-6.6357422,9.9570313-9.9287109 v-0.0146484c-3.1552734-3.1416016-6.296875-6.2822266-9.4316406-9.4101563 C850.359375,1058.1708984,847.059082,1061.4921875,843.7446289,1064.7998047z"/> <linearGradient id="SVGID_52_" gradientUnits="userSpaceOnUse" x1="723.4106445" y1="1177.8291016" x2="1015.151123" y2="916.5887451"> <stop offset="0.192308" style="stop-color:#FFFFFF"/> <stop offset="1" style="stop-color:#12A2DC"/> </linearGradient> <polygon fill-rule="evenodd" clip-rule="evenodd" fill="url(#SVGID_52_)" points="873.4912109,1035.0253906 882.9228516,1044.4423828 892.8662109,1034.4990234 883.4414063,1025.0820313 "/> <linearGradient id="SVGID_53_" gradientUnits="userSpaceOnUse" x1="663.2231445" y1="1110.6318359" x2="954.991333" y2="849.3666992"> <stop offset="0.192308" style="stop-color:#FFFFFF"/> <stop offset="1" style="stop-color:#12A2DC"/> </linearGradient> <polygon fill-rule="evenodd" clip-rule="evenodd" fill="url(#SVGID_53_)" points="894.2636719,912.1611328 884.8393555,902.7373047 874.8964844,912.6801758 884.3203125,922.0976563 "/> <linearGradient id="SVGID_54_" gradientUnits="userSpaceOnUse" x1="662.4462891" y1="1109.6494141" x2="954.1474609" y2="848.4442139"> <stop offset="0.192308" style="stop-color:#FFFFFF"/> <stop offset="1" style="stop-color:#12A2DC"/> </linearGradient> <polygon fill-rule="evenodd" clip-rule="evenodd" fill="url(#SVGID_54_)" points="910.3027344,896.1113281 900.8857422,886.6875 890.9560547,896.6308594 900.3598633,906.0585938 "/> <linearGradient id="SVGID_55_" gradientUnits="userSpaceOnUse" x1="707.190918" y1="1159.796875" x2="999.00354" y2="898.4919434"> <stop offset="0.192308" style="stop-color:#FFFFFF"/> <stop offset="1" style="stop-color:#12A2DC"/> </linearGradient> <polygon fill-rule="evenodd" clip-rule="evenodd" fill="url(#SVGID_55_)" points="907.6318359,988.7197266 898.2080078,979.3027344 888.2646484,989.2529297 897.6816406,998.6699219 "/> <linearGradient id="SVGID_56_" gradientUnits="userSpaceOnUse" x1="706.5395508" y1="1159.1699219" x2="998.4212646" y2="897.8031006"> <stop offset="0.192308" style="stop-color:#FFFFFF"/> <stop offset="1" style="stop-color:#12A2DC"/> </linearGradient> <polygon fill-rule="evenodd" clip-rule="evenodd" fill="url(#SVGID_56_)" points="923.9345703,972.9179688 914.5029297,963.5039063 904.5668945,973.4399414 913.9775391,982.8662109 "/> <linearGradient id="SVGID_57_" gradientUnits="userSpaceOnUse" x1="634.6132813" y1="1078.8027344" x2="926.4627686" y2="817.4647217"> <stop offset="0.192308" style="stop-color:#FFFFFF"/> <stop offset="1" style="stop-color:#12A2DC"/> </linearGradient> <polygon fill-rule="evenodd" clip-rule="evenodd" fill="url(#SVGID_57_)" points="863.9423828,881.847168 854.5322266,872.4331055 844.5820313,882.3696289 854.0131836,891.7832031 "/> <linearGradient id="SVGID_58_" gradientUnits="userSpaceOnUse" x1="664.0097656" y1="1111.5517578" x2="955.8031006" y2="850.2640991"> <stop offset="0.192308" style="stop-color:#FFFFFF"/> <stop offset="1" style="stop-color:#12A2DC"/> </linearGradient> <polygon fill-rule="evenodd" clip-rule="evenodd" fill="url(#SVGID_58_)" points="868.7792969,937.6386719 878.7226563,927.6850586 869.2983398,918.2783203 859.3618164,928.2143555 "/> <linearGradient id="SVGID_59_" gradientUnits="userSpaceOnUse" x1="708.9462891" y1="1161.8554688" x2="1000.850769" y2="900.4682617"> <stop offset="0.192308" style="stop-color:#FFFFFF"/> <stop offset="1" style="stop-color:#12A2DC"/> </linearGradient> <polygon fill-rule="evenodd" clip-rule="evenodd" fill="url(#SVGID_59_)" points="877.5947266,1019.2558594 868.1704102,1009.8310547 858.234375,1019.78125 867.6376953,1029.1992188 "/> <linearGradient id="SVGID_60_" gradientUnits="userSpaceOnUse" x1="712.1230469" y1="1165.2607422" x2="1003.8935547" y2="903.9934082"> <stop offset="0.192308" style="stop-color:#FFFFFF"/> <stop offset="1" style="stop-color:#12A2DC"/> </linearGradient> <path fill-rule="evenodd" clip-rule="evenodd" fill="url(#SVGID_60_)" d="M818.0595703,1078.8251953v-0.0136719 c-3.1347656-3.1416016-6.2900391-6.2763672-9.4169922-9.4169922c-3.3144531,3.3066406-6.6357422,6.6289063-9.9433594,9.9423828 c3.1342773,3.1416016,6.2685547,6.2832031,9.4033203,9.4179688 C811.4238281,1085.4335938,814.7382813,1082.1259766,818.0595703,1078.8251953z"/> <linearGradient id="SVGID_61_" gradientUnits="userSpaceOnUse" x1="710.5854492" y1="1163.5214844" x2="1002.3364868" y2="902.2716675"> <stop offset="0.192308" style="stop-color:#FFFFFF"/> <stop offset="1" style="stop-color:#12A2DC"/> </linearGradient> <path fill-rule="evenodd" clip-rule="evenodd" fill="url(#SVGID_61_)" d="M847.8271484,1049.0371094 c-3.1347656-3.1552734-6.2900391-6.2832031-9.4243164-9.4179688c-3.3212891,3.3007813-6.6289063,6.6289063-9.9360352,9.9433594 c3.1342773,3.1347656,6.2685547,6.2832031,9.4169922,9.4179688 C841.1914063,1055.6591797,844.5058594,1052.3515625,847.8271484,1049.0371094z"/> <linearGradient id="SVGID_62_" gradientUnits="userSpaceOnUse" x1="708.2402344" y1="1160.9560547" x2="1000.0410156" y2="899.6616821"> <stop offset="0.192308" style="stop-color:#FFFFFF"/> <stop offset="1" style="stop-color:#12A2DC"/> </linearGradient> <polygon fill-rule="evenodd" clip-rule="evenodd" fill="url(#SVGID_62_)" points="892.3466797,1004.5029297 882.9365234,995.0791016 872.9794922,1005.0224609 882.4038086,1014.4462891 "/> <linearGradient id="SVGID_63_" gradientUnits="userSpaceOnUse" x1="709.8491211" y1="1162.6220703" x2="1001.5147705" y2="901.4487305"> <stop offset="0.192308" style="stop-color:#FFFFFF"/> <stop offset="1" style="stop-color:#12A2DC"/> </linearGradient> <path fill-rule="evenodd" clip-rule="evenodd" fill="url(#SVGID_63_)" d="M862.6972656,1034.1533203v-0.0068359 c-3.1347656-3.1484375-6.2695313-6.2763672-9.4106445-9.4179688c-3.328125,3.3076172-6.6289063,6.6357422-9.9433594,9.9433594 c3.1342773,3.1347656,6.2758789,6.2763672,9.4243164,9.4248047 C856.0820313,1040.7675781,859.4033203,1037.4746094,862.6972656,1034.1533203z"/> <linearGradient id="SVGID_64_" gradientUnits="userSpaceOnUse" x1="635.4960938" y1="1079.6328125" x2="927.2320557" y2="818.3964844"> <stop offset="0.192308" style="stop-color:#FFFFFF"/> <stop offset="1" style="stop-color:#12A2DC"/> </linearGradient> <polygon fill-rule="evenodd" clip-rule="evenodd" fill="url(#SVGID_64_)" points="848.4150391,897.3813477 838.9912109,887.9638672 829.0478516,897.9072266 838.472168,907.324707 "/> <linearGradient id="SVGID_65_" gradientUnits="userSpaceOnUse" x1="711.2993164" y1="1164.4443359" x2="1003.2088623" y2="903.0526123"> <stop offset="0.192308" style="stop-color:#FFFFFF"/> <stop offset="1" style="stop-color:#12A2DC"/> </linearGradient> <path fill-rule="evenodd" clip-rule="evenodd" fill="url(#SVGID_65_)" d="M832.9433594,1063.9277344v-0.0136719 c-3.1484375-3.1416016-6.2827148-6.2626953-9.4169922-9.4042969c-3.3217773,3.3007813-6.6357422,6.6289063-9.9575195,9.9365234 c3.1416016,3.1416016,6.2895508,6.2832031,9.4311523,9.4179688 C826.3144531,1070.5566406,829.6357422,1067.2421875,832.9433594,1063.9277344z"/> <linearGradient id="SVGID_66_" gradientUnits="userSpaceOnUse" x1="636.0625" y1="1080.34375" x2="927.8602295" y2="819.052124"> <stop offset="0.192308" style="stop-color:#FFFFFF"/> <stop offset="1" style="stop-color:#12A2DC"/> </linearGradient> <polygon fill-rule="evenodd" clip-rule="evenodd" fill="url(#SVGID_66_)" points="832.1132813,913.1855469 822.7026367,903.7680664 812.7592773,913.7109375 822.1767578,923.1357422 "/> <linearGradient id="SVGID_67_" gradientUnits="userSpaceOnUse" x1="622.7421875" y1="1065.4355469" x2="914.5096436" y2="804.1710205"> <stop offset="0.192308" style="stop-color:#FFFFFF"/> <stop offset="1" style="stop-color:#12A2DC"/> </linearGradient> <polygon fill-rule="evenodd" clip-rule="evenodd" fill="url(#SVGID_67_)" points="801.5566406,913.7109375 792.1464844,904.2973633 782.203125,914.2333984 791.6269531,923.6542969 "/> <linearGradient id="SVGID_68_" gradientUnits="userSpaceOnUse" x1="637.0786133" y1="1081.5185547" x2="928.9069824" y2="820.1994629"> <stop offset="0.192308" style="stop-color:#FFFFFF"/> <stop offset="1" style="stop-color:#12A2DC"/> </linearGradient> <polygon fill-rule="evenodd" clip-rule="evenodd" fill="url(#SVGID_68_)" points="806.8984375,938.9052734 816.8349609,928.9511719 807.4174805,919.5371094 797.4746094,929.4804688 "/> <linearGradient id="SVGID_69_" gradientUnits="userSpaceOnUse" x1="623.5068359" y1="1066.2900391" x2="915.2768555" y2="805.0231934"> <stop offset="0.192308" style="stop-color:#FFFFFF"/> <stop offset="1" style="stop-color:#12A2DC"/> </linearGradient> <polygon fill-rule="evenodd" clip-rule="evenodd" fill="url(#SVGID_69_)" points="786.8115234,928.456543 777.3867188,919.0527344 767.4365234,928.9960938 776.8613281,938.4140625 "/> <g> <g> <path d="M1216.6152344,1059.25c-1.0722656,0-1.9511719-0.9199219-1.9511719-2.0625v-0.2070313l-3.3212891,8.8779297h10.5380859 l-3.4589844-7.8955078C1218.1240234,1058.7167969,1217.4248047,1059.25,1216.6152344,1059.25z"/> <path d="M1192.0517578,1054.7382813h4.9882813l3.0869141-2v-8.0117188h-8.0751953V1054.7382813z M1197.0400391,1045.8613281 h2.4013672v4.7392578h-2.4013672V1045.8613281z M1197.0400391,1051.203125h2.4013672v1.1757813l-2.4013672,1.5644531V1051.203125 z M1193.6845703,1047.0644531h2.8505859v3.5361328h-2.8505859V1047.0644531z"/> <path d="M1216.6152344,1059.25c-1.0722656,0-1.9511719-0.9199219-1.9511719-2.0625v-0.2070313l-3.3212891,8.8779297h10.5380859 l-3.4589844-7.8955078C1218.1240234,1058.7167969,1217.4248047,1059.25,1216.6152344,1059.25z"/> <rect x="1210.6787109" y="1074.1201172" width="11.8671875" height="1.7294922"/> <path d="M1263.8271484,1038.8378906l0.0341797-0.1181641l-0.3251953-0.0966797 c-0.2001953-0.1308594-0.4287109-0.2216797-0.6777344-0.2695313v-0.6025391l-11.7148438-3.5703125h-1.9443359 l-68.2402344-21.1728516c-0.3242188-0.2080078-0.6982422-0.3330078-1.0996094-0.3330078 c-0.546875,0-1.0449219,0.2216797-1.4121094,0.5810547l-30.8398438,18.6484375h-5.8808594v3.5566406l-4.0205078,2.4355469 c-0.6787109-0.8369141-1.6679688-1.3701172-2.7958984-1.3701172c-2.0410156,0-3.6943359,1.7294922-3.6943359,3.8886719 c0,2.1523438,1.6533203,3.9033203,3.6943359,3.9033203c0.6855469,0,37.0332031-0.2011719,37.0332031-0.2011719 l-7.6806641,44.6787109l-0.4355469,14.9394531h-1.4736328v7.8808594h0.71875v0.4150391h1.0107422v-0.4150391h2.4492188v0.4150391 h1.0175781v-0.4150391h0.5048828v-7.8808594h-1.1142578l0.1806641-3.0585938h25.5390625l0.1660156,3.0585938h-1.1074219 v7.8808594h0.5888672v0.4150391h1.0097656v-0.4150391h2.4570313v0.4150391h1.0166016v-0.4150391h0.6230469v-7.8808594h-1.4599609 l-0.4423828-14.9394531l-7.7783203-45.2734375h26.9306641v12.5722656l-0.0625-0.0273438l-3.6669922,9.7910156h-0.2558594 v1.6328125h11.8671875v-1.6328125h-0.2568359l-3.7431641-8.5390625c0.0068359-0.0410156,0.0136719-0.0761719,0.0136719-0.1318359 v-13.6650391h44.2988281v-0.8378906c0.96875-0.1865234,1.7158203-1.0859375,1.7158203-2.1591797 C1264.5742188,1039.8476563,1264.2773438,1039.2460938,1263.8271484,1038.8378906z M1134.7724609,1041.640625 c-0.5673828,0-1.0244141-0.4785156-1.0244141-1.0800781c0-0.5947266,0.4570313-1.0791016,1.0244141-1.0791016 s1.0302734,0.484375,1.0302734,1.0791016C1135.8027344,1041.1621094,1135.3398438,1041.640625,1134.7724609,1041.640625z M1141.7265625,1040.5332031h-3.1347656c0-0.0419922,0.0136719-0.0761719,0.0136719-0.1181641 c0-0.8164063-0.2421875-1.5771484-0.6503906-2.2070313l3.7714844-2.2763672V1040.5332031z M1261.7099609,1038.4707031 c-0.6503906,0.2773438-1.1279297,0.8720703-1.2802734,1.5986328l-2.1523438-2.6640625L1261.7099609,1038.4707031z M1250.4306641,1034.9765625l0.0488281,0.0136719l-2.8857422,3.5986328l-2.8505859-3.6123047H1250.4306641z M1179.8662109,1013.7265625c0.5673828,0,1.0244141,0.4775391,1.0244141,1.0800781 c0,0.6015625-0.4570313,1.0859375-1.0244141,1.0859375c-0.5742188,0-1.03125-0.484375-1.03125-1.0859375 C1178.8349609,1014.2041016,1179.2919922,1013.7265625,1179.8662109,1013.7265625z M1179.6933594,1027.5039063h0.3808594 c1.5634766,0,2.8984375,0.9824219,3.4804688,2.4003906h-7.3349609 C1176.8076172,1028.4863281,1178.1435547,1027.5039063,1179.6933594,1027.5039063z M1174.9746094,1037.3154297 l0.9267578-5.8056641c0-0.2763672,0.0283203-0.546875,0.0761719-0.8095703h7.8193359 c0.0546875,0.2626953,0.0761719,0.5332031,0.0761719,0.8095703l0.9335938,5.8056641H1174.9746094z M1184.9033203,1037.9169922 l0.4228516,2.6162109h-10.8710938l0.4150391-2.6162109H1184.9033203z M1170.2207031,1040.3876953h-21.4570313v-7.3486328 h21.4570313V1040.3876953z M1171.3417969,1040.5332031v-8.6289063h-22.9658203l29.5527344-17.8662109 c-0.1035156,0.2558594-0.1591797,0.546875-0.1591797,0.8447266c0,0.3730469,0.0898438,0.7265625,0.2421875,1.0449219 l-0.6435547,9.5693359h-2.2275391l-2.5810547,15.0361328H1171.3417969z M1173.8808594,1044.1171875h11.1054688 l-13.6445313,15.8525391L1173.8808594,1044.1171875z M1167.1416016,1098.6074219l0.0273438-2.2001953 c0-2.0546875,0.8027344-3.7294922,2.5810547-3.9785156l1.8476563-0.0341797h17.5957031 c2.0898438,0,3.4189453,1.7988281,3.4189453,4.0126953l0.0205078,2.2001953H1167.1416016z M1192.6123047,1085.9941406 c0,2.2070313-1.7021484,4.0058594-3.7988281,4.0058594h-17.8525391c-0.6015625,0-1.1757813-0.1523438-1.6816406-0.4287109 l20.1494141-23.4150391L1192.6123047,1085.9941406z M1189.0136719,1063.5605469l-21.2080078,24.6474609 c-0.4013672-0.6367188-0.6367188-1.4042969-0.6367188-2.2138672l3.5634766-22.2460938l15.4375-17.9355469 L1189.0136719,1063.5605469z M1187.5957031,1042.7197266l-0.1796875-1.0175781v-2.9960938l4.9951172,4.0136719H1187.5957031z M1192.7988281,1042.5332031l-5.2167969-4.2011719l5.2167969-1.1962891V1042.5332031z M1199.2060547,1042.7197266h-5.6669922 l5.6669922-6.5810547V1042.7197266z M1193.1796875,1042.546875v-5.4873047l5.8886719-1.3564453L1193.1796875,1042.546875z M1202.3125,1039.0175781l-2.6777344,3.515625v-6.6435547L1202.3125,1039.0175781z M1199.8359375,1035.5371094 l2.4355469-0.5605469h3.1210938l-2.8378906,3.7226563L1199.8359375,1035.5371094z M1199.9746094,1042.7197266 l2.5947266-3.4042969l2.9199219,3.4042969H1199.9746094z M1205.6132813,1042.2695313l-2.8017578-3.265625l2.8017578-3.6816406 V1042.2695313z M1212.0693359,1042.7197266h-5.7216797l5.7216797-7.4736328V1042.7197266z M1206.0429688,1042.484375v-7.5078125 h5.75L1206.0429688,1042.484375z M1218.1796875,1043.5224609v12.4960938 c-0.3046875-0.5810547-0.8857422-0.9824219-1.5644531-0.9824219c-0.6777344,0-1.2587891,0.4013672-1.5634766,0.9824219 v-12.4960938H1218.1796875z M1215.0517578,1042.7197266v-0.5400391c0.1865234,0.2216797,0.421875,0.4150391,0.6923828,0.5400391 H1215.0517578z M1217.4873047,1042.7197266c0.1796875-0.0908203,0.3525391-0.2080078,0.5048828-0.3535156l0.1875,0.2490234 v0.1044922H1217.4873047z M1216.6152344,1038.5195313c-0.1865234,0-0.3662109,0.0273438-0.5390625,0.0761719l2.4003906-3.0791016 v4.2070313C1218.1308594,1039.0107422,1217.4248047,1038.5195313,1216.6152344,1038.5195313z M1215.5986328,1038.5742188 l-2.7333984-3.5976563h5.5429688L1215.5986328,1038.5742188z M1215.3496094,1038.8925781l-0.2011719,0.2636719 c-0.1035156,0.1035156-0.2001953,0.2207031-0.2695313,0.3457031l-2.4287109,3.1064453v-7.5351563L1215.3496094,1038.8925781z M1212.8515625,1042.7197266l1.6816406-2.1523438c-0.0078125,0.0419922-0.0078125,0.1044922-0.0078125,0.1455078 c0,0.2910156,0.0556641,0.5537109,0.1386719,0.8027344v1.2041016H1212.8515625z M1221.8808594,1065.8583984h-10.5380859 l3.3212891-8.8779297v0.2070313c0,1.1425781,0.8789063,2.0625,1.9511719,2.0625 c0.8095703,0,1.5087891-0.5332031,1.8066406-1.2871094L1221.8808594,1065.8583984z M1202.1884766,1034.1806641 l-15.4511719,3.5292969l-0.0136719-0.0556641v-0.3388672h-0.0625l-2.0205078-11.8183594h-2.3525391l-0.6435547-9.4794922 c0.1875-0.3251953,0.2978516-0.7197266,0.2978516-1.1347656c0-0.4775391-0.1386719-0.90625-0.3740234-1.2597656 l66.28125,20.5576172H1202.1884766z M1244.0927734,1034.9765625l-2.7958984,3.6328125l-2.7402344-3.6328125H1244.0927734z M1237.5537109,1034.9765625l-2.7402344,3.5703125l-2.7539063-3.5703125H1237.5537109z M1231.0292969,1034.9765625 l-2.7402344,3.4667969l-2.7539063-3.4667969H1231.0292969z M1224.53125,1034.9765625l-2.5878906,3.4599609l-2.7265625-3.4599609 H1224.53125z M1218.90625,1035.2119141l2.7949219,3.5498047l-2.7949219,3.7226563V1035.2119141z M1219.2167969,1042.7197266 l2.7333984-3.6464844l2.8652344,3.6464844H1219.2167969z M1224.9326172,1042.2421875l-2.7470703-3.4873047l2.7470703-3.6669922 V1042.2421875z M1225.3134766,1035.3222656l2.7255859,3.4394531l-2.7255859,3.453125V1035.3222656z M1225.4101563,1042.7197266 l2.8789063-3.6464844l2.8984375,3.6464844H1225.4101563z M1231.3886719,1042.3457031l-2.8505859-3.5839844l2.8505859-3.6123047 V1042.3457031z M1231.7695313,1035.2392578l2.7949219,3.6259766l-2.7949219,3.6533203V1035.2392578z M1232.1083984,1042.7197266 l2.7050781-3.5292969l2.7197266,3.5292969H1232.1083984z M1237.7958984,1042.4287109l-2.7402344-3.5634766l2.7402344-3.5703125 V1042.4287109z M1238.2246094,1035.1835938l2.8300781,3.7441406l-2.8300781,3.6669922V1035.1835938z M1238.6191406,1042.7197266 l2.6777344-3.4736328l2.6230469,3.4736328H1238.6191406z M1244.2519531,1042.5185547l-2.7128906-3.5908203l2.7128906-3.5224609 V1042.5185547z M1244.6328125,1035.4609375l2.7119141,3.4394531l-2.7119141,3.3828125V1035.4609375z M1244.7773438,1042.7197266 l2.8164063-3.5087891l2.7675781,3.5087891H1244.7773438z M1250.7080078,1042.5332031l-2.8652344-3.6269531l2.8652344-3.5761719 V1042.5332031z M1251.0878906,1042.7197266v-7.5361328l0.0839844,0.0214844l5.7568359,7.5146484H1251.0878906z M1257.1640625,1042.3867188l-5.3564453-6.9814453l5.3564453,1.6611328V1042.3867188z M1257.5439453,1042.7197266v-5.5361328 l0.0693359,0.0214844l2.78125,3.4384766c0.0556641,1.0029297,0.7412109,1.8271484,1.6474609,2.0341797l0.0341797,0.0419922 H1257.5439453z"/> <rect x="1210.6787109" y="1068.0791016" width="11.8671875" height="5.4462891"/> </g> <g> <path d="M895.1147461,1069.3525391c-0.6157227,0-1.1206055-0.5332031-1.1206055-1.1835938v-0.1240234l-1.9101563,5.1132813 h6.0683594l-1.9995117-4.5390625C895.9936523,1069.0478516,895.5849609,1069.3525391,895.1147461,1069.3525391z"/> <path d="M880.9648438,1066.7578125h2.8779297l1.7714844-1.15625v-4.6152344h-4.6494141V1066.7578125z M883.8427734,1061.6367188 h1.3769531v2.7333984h-1.3769531V1061.6367188z M883.8427734,1064.7167969h1.3769531v0.6777344l-1.3769531,0.8994141 V1064.7167969z M881.9052734,1062.3291016h1.6401367v2.0410156h-1.6401367V1062.3291016z"/> <path d="M895.1147461,1069.3525391c-0.6157227,0-1.1206055-0.5332031-1.1206055-1.1835938v-0.1240234l-1.9101563,5.1132813 h6.0683594l-1.9995117-4.5390625C895.9936523,1069.0478516,895.5849609,1069.3525391,895.1147461,1069.3525391z"/> <rect x="891.6962891" y="1077.9189453" width="6.84375" height="1.0029297"/> <path d="M845.9101563,1058.5029297c0,1.2382813,0.9482422,2.2412109,2.1245117,2.2412109 c0.1938477,0,5.0717773-0.0273438,10.1166992-0.0478516v-2.2138672h-2.1318359v-4.2285156h2.1318359v-0.6572266h-2.3530273 l2.3530273-1.4179688v-0.2705078l-2.7958984,1.6884766h-3.390625v2.0478516l-2.3110352,1.4052734 c-0.394043-0.484375-0.9682617-0.7958984-1.6191406-0.7958984 C846.8583984,1056.2539063,845.9101563,1057.2578125,845.9101563,1058.5029297z M850.1660156,1058.5029297 c0-0.4775391-0.1386719-0.9130859-0.3740234-1.2734375l2.1728516-1.3144531v2.6494141h-1.8056641 C850.1660156,1058.5439453,850.1660156,1058.5234375,850.1660156,1058.5029297z"/> <path d="M891.8417969,1073.1582031h-0.1455078v0.9482422h6.84375v-0.9482422h-0.1523438l-2.1591797-4.9199219 c0.0073242-0.0205078,0.0141602-0.0488281,0.0141602-0.0693359v-7.8740234h25.519043v-0.484375 c0.5605469-0.1113281,0.9892578-0.6298828,0.9892578-1.2519531c0-0.3876953-0.1660156-0.734375-0.4287109-0.9628906 l0.0205078-0.0683594l-0.1865234-0.0625c-0.1181641-0.0761719-0.2490234-0.125-0.3945313-0.1523438v-0.3457031l-6.753418-2.0625 h-1.1137695l-39.3237305-12.1992188c-0.1796875-0.1171875-0.4008789-0.1865234-0.6362305-0.1865234 c-0.3115234,0-0.5952148,0.125-0.8095703,0.3320313l-15.6660156,9.5146484h0.4428711l14.925293-9.0644531 c-0.0556641,0.1523438-0.0966797,0.3115234-0.0966797,0.484375c0,0.2148438,0.0551758,0.421875,0.1455078,0.6015625 l-0.3251953,4.78125h2.7397461l-0.3251953-4.7255859c0.1108398-0.1933594,0.1733398-0.4150391,0.1733398-0.6572266 c0-0.2695313-0.0761719-0.5195313-0.2148438-0.7265625l38.1953125,11.8457031h-26.3144531l-6.9609375,1.5917969v0.4707031 l1.5498047-0.3535156v3.1074219l-1.5498047-1.2519531v0.2900391l1.328125,1.0722656h-1.328125v0.4638672h14.1503906v7.2382813 l-0.0351563-0.0146484L891.8417969,1073.1582031z M899.6816406,1055.3681641l-1.4946289,1.9931641l-1.5708008-1.9931641 H899.6816406z M903.4248047,1055.3681641l-1.5839844,2l-1.578125-2H903.4248047z M907.1826172,1055.3681641l-1.578125,2.0615234 l-1.5913086-2.0615234H907.1826172z M910.953125,1055.3681641l-1.6118164,2.0898438l-1.5844727-2.0898438H910.953125z M914.6279297,1055.375l-1.6611328,2.0761719l-1.6396484-2.0830078h3.2797852L914.6279297,1055.375z M921.1044922,1057.3818359 c-0.3740234,0.1523438-0.6503906,0.4980469-0.7333984,0.9199219L919.125,1056.765625L921.1044922,1057.3818359z M918.4887695,1059.6445313l-3.0932617-4.0341797l3.0932617,0.9550781V1059.6445313z M914.9873047,1055.4863281 l0.0419922,0.0205078l3.3212891,4.3242188h-3.3632813V1055.4863281z M914.7661133,1059.7138672l-1.6538086-2.0830078 l1.6538086-2.0625V1059.7138672z M911.3476563,1059.8310547l1.6191406-2.0205078l1.5986328,2.0205078H911.3476563z M911.2646484,1055.6445313l1.5639648,1.9863281l-1.5639648,1.9511719V1055.6445313z M911.043457,1059.7138672 l-1.5639648-2.0693359l1.5639648-2.0341797V1059.7138672z M907.7978516,1059.8310547l1.543457-2.0068359l1.5083008,2.0068359 H907.7978516z M907.5698242,1055.4863281l1.6333008,2.1513672l-1.6333008,2.1171875V1055.4863281z M907.3208008,1059.6582031 L905.75,1057.6103516l1.5708008-2.0625V1059.6582031z M904.0478516,1059.8310547l1.5566406-2.0341797l1.5712891,2.0341797 H904.0478516z M903.847168,1055.5136719l1.6123047,2.0966797l-1.6123047,2.1035156V1055.5136719z M903.6328125,1059.6171875 l-1.6469727-2.0761719l1.6469727-2.0693359V1059.6171875z M900.1796875,1059.8310547l1.6611328-2.1035156l1.6743164,2.1035156 H900.1796875z M900.1313477,1055.5683594l1.5708008,1.9726563l-1.5708008,2V1055.5683594z M899.9169922,1059.5546875 l-1.5849609-2.0136719l1.5849609-2.1103516V1059.5546875z M896.6162109,1059.8310547l1.5708008-2.1035156l1.6606445,2.1035156 H896.6162109z M896.4433594,1055.5068359l1.6054688,2.0341797l-1.6054688,2.1582031V1055.5068359z M892.9492188,1059.8310547 l0.96875-1.2451172c0,0.0273438,0,0.0625,0,0.0898438c0,0.1660156,0.0273438,0.3183594,0.0761719,0.4570313v0.6982422 H892.9492188z M885.53125,1059.8310547l1.4946289-1.9580078l1.6811523,1.9580078H885.53125z M885.0126953,1055.7900391 l-3.3974609,3.9375v-3.1621094L885.0126953,1055.7900391z M885.0883789,1059.8310547h-3.2661133l3.2661133-3.7919922 V1059.8310547z M885.3378906,1055.8945313l1.5429688,1.8056641l-1.5429688,2.0205078V1055.8945313z M888.6523438,1055.3681641 l-1.6333008,2.1455078l-1.5639648-1.8203125l1.3979492-0.3251953H888.6523438z M888.7832031,1059.5683594l-1.6191406-1.8818359 l1.6191406-2.1181641V1059.5683594z M892.3398438,1055.3681641l-3.3144531,4.3310547v-4.3310547H892.3398438z M892.4990234,1059.8310547h-3.293457l3.293457-4.3105469V1059.8310547z M892.7138672,1055.4238281l1.6816406,2.1933594 l-0.125,0.1591797c-0.0551758,0.0556641-0.1103516,0.1240234-0.1591797,0.2001953l-1.3974609,1.7929688V1055.4238281z M896.0214844,1060.2949219v7.1962891c-0.1733398-0.3388672-0.5195313-0.5605469-0.9067383-0.5605469 s-0.7192383,0.2216797-0.8994141,0.5605469v-7.1962891H896.0214844z M896.152832,1055.3681641l-1.6264648,2.0761719 l-1.5703125-2.0761719H896.152832z M896.1943359,1058.1015625c-0.2006836-0.4082031-0.609375-0.6923828-1.0795898-0.6923828 c-0.1040039,0-0.2075195,0.0146484-0.3041992,0.0419922l1.3837891-1.7714844V1058.1015625z M892.0839844,1073.1582031 l1.9101563-5.1132813v0.1240234c0,0.6503906,0.5048828,1.1835938,1.1206055,1.1835938 c0.4702148,0,0.8789063-0.3046875,1.0380859-0.7333984l1.9995117,4.5390625H892.0839844z"/> <path d="M918.703125,1056.6347656l0.034668,0.0136719l1.6054688,1.9863281 c0.034668,0.5742188,0.4291992,1.0507813,0.9545898,1.1689453l0.0136719,0.0273438h-2.6083984V1056.6347656z"/> <path d="M847.9589844,1059.2011719c-0.3251953,0-0.5883789-0.2695313-0.5883789-0.6152344 s0.2631836-0.6230469,0.5883789-0.6230469s0.5947266,0.2773438,0.5947266,0.6230469 S848.2841797,1059.2011719,847.9589844,1059.2011719z"/> <path d="M873.9414063,1043.1210938c0.3251953,0,0.5947266,0.2763672,0.5947266,0.6289063 c0,0.3398438-0.2695313,0.6162109-0.5947266,0.6162109s-0.5952148-0.2763672-0.5952148-0.6162109 C873.3461914,1043.3974609,873.6162109,1043.1210938,873.9414063,1043.1210938z"/> <path d="M894.215332,1059.8310547v-0.3183594c0.1108398,0.1386719,0.2490234,0.2421875,0.4013672,0.3183594H894.215332z"/> <path d="M895.6201172,1059.8310547c0.1103516-0.0556641,0.2070313-0.1171875,0.2905273-0.2070313l0.1108398,0.1455078v0.0615234 H895.6201172z"/> <rect x="891.6962891" y="1074.4384766" width="6.84375" height="3.1416016"/> </g> <g> <path d="M831.8574219,1087.2880859c-3.3427734-7.1064453-18.0185547-42.984375-14.4829102-75.9902344h1.8544922v-3.4804688 h-38.2299805v3.4804688h2.0068359c3.5356445,33.0058594-11.140625,66.4755859-14.4892578,73.5888672h-2l0.484375,12.0048828 l66.5859375-3.3837891v-6.2197266H831.8574219z"/> <path d="M864.3300781,1088.1181641c-2.6777344-5.6943359-14.3994141-34.0507813-11.5625-60.5039063h1.480957v-2.7880859 h-28.1069336v2.7880859h1.6054688c1.2177734,11.3271484-3.425293,25.0898438-5.7021484,34.8671875 c3.515625,12.2333984,6.1728516,21.2294922,7.7431641,24.578125l0.9960938,5.3554688l4.5327148,1.0927734l30.237793,8.7324219 l0.1660156-14.1220703H864.3300781z"/> <path d="M883.0820313,1070.0791016l-3.2524414-55.7363281h-4.3798828l-3.2456055,55.7363281h-2.0131836l-2.5463867-35.7119141 h-4.3730469l-2.5532227,35.7119141l-0.1381836,4.9130859c2.5527344,8.1230469,3.6044922,9.0986328,4.7119141,11.4648438 l1.7988281,0.0898438v6.9199219l22.0732422,0.0410156v-23.4287109H883.0820313z"/> </g> <g> <polygon points="1028.1845703,1071.6845703 1028.1845703,1059.2705078 1022.3310547,1059.4160156 1025.921875,1071.6845703 "/> <rect x="1033.7617188" y="1028.0361328" width="3.0654297" height="43.5302734"/> <rect x="976.3232422" y="1054.1298828" width="1.1210938" height="0.7822266"/> <rect x="978.3300781" y="1054.1298828" width="3.75" height="0.7822266"/> <rect x="982.9248047" y="1054.1298828" width="1.0927734" height="0.7822266"/> <rect x="976.3232422" y="1048.8574219" width="1.1210938" height="4.7675781"/> <rect x="978.3300781" y="1048.8574219" width="3.75" height="4.7675781"/> <rect x="982.9248047" y="1048.8574219" width="1.0927734" height="4.7675781"/> <rect x="976.3232422" y="1047.5009766" width="1.1210938" height="0.8505859"/> <rect x="982.9248047" y="1047.5009766" width="1.0927734" height="0.8505859"/> <path d="M1046.6386719,1114.4052734v-2.1865234H1046.625l-4.6708984-15.2441406v-0.0546875h-5.1269531v-8.234375h19.1806641 v-1.3007813h-19.2910156v-0.8164063h19.2910156v-12.3378906c1.0244141-0.3105469,1.7851563-1.3076172,1.7851563-2.4902344 c0-0.1181641-0.0136719-0.2285156-0.0273438-0.3398438l0.0068359-0.0068359l-0.0205078-0.0830078 c-0.0214844-0.1728516-0.0693359-0.3320313-0.125-0.4980469l-11.2988281-43.9179688 c0.0546875-0.2626953,0.0898438-0.5332031,0.0898438-0.8027344c0-1.5292969-0.9208984-2.8164063-2.2080078-3.3144531 l-37.7177734-64.2207031c-0.4355469-1.1074219-1.4736328-1.8823242-2.6777344-1.8823242 c-1.5986328,0-2.8994141,1.3735352-2.8994141,3.0620117c0,0.8857422,0.3603516,1.6777344,0.9267578,2.234375 l-10.9599609,17.2973633l-10.8911133,47.059082c-0.0141602,0-0.027832,0-0.0415039,0 c-1.1625977,0-2.1240234,0.9414063-2.2211914,2.1455078h-0.0068359l0.0068359,0.0683594 c0,0.0488281-0.0068359,0.0898438-0.0068359,0.1386719c0,0.2011719,0.027832,0.4013672,0.0688477,0.5878906l1.6611328,18.2333984 h-1.1210938v0.8505859h3.75v-0.8505859h-1.0375977l1.1557617-18.6201172h-0.027832 c0.0068359-0.0625,0.0068359-0.1318359,0.0068359-0.2011719c0-0.3388672-0.0693359-0.6708984-0.1938477-0.9619141 l13.4584961-38.3193359l20.0805664,75.8710938l6.7949219,14.2617188l5.8671875,0.1660156v-7.3066406h-2.7675781 l-27.9130859-88.8808594l7.3554688-20.9262695c0.2910156-0.1142578,0.5605469-0.2768555,0.7958984-0.4916992 l23.2978516,54.0849609l0.0136719,8.3789063h5.2861328L1006.5478516,960.75 c0.1103516-0.3183594,0.1660156-0.6645508,0.1660156-1.0136719c0-0.0449219,0-0.09375,0-0.1420898l37.0185547,63.0385742 c-0.2138672-0.0419922-0.4355469-0.0703125-0.6640625-0.0703125c-1.5839844,0-2.90625,1.1630859-3.2519531,2.7197266 l-10.8496094,0.0488281l0.0488281,64.9599609h-1.2255859v-9.2099609h-9.5898438v6.6425781l3.3701172,3.9853516h7.4453125 v5.2109375h-5.5703125v0.1171875l-0.0761719-0.0273438l-4.5605469,15.2089844h-0.0205078v2.6083984l-7.1269531,13.859375 h-2.0478516v7.2939453h47.7304688v-7.2939453h-3.4326172L1046.6386719,1114.4052734z M979.9423828,1028.1328125 c0.3388672,0,0.6015625,0.2841797,0.6015625,0.6367188c0,0.3603516-0.2626953,0.6503906-0.6015625,0.6503906 s-0.609375-0.2900391-0.609375-0.6503906C979.3330078,1028.4169922,979.6035156,1028.1328125,979.9423828,1028.1328125z M980.7099609,1047.5009766h-0.9199219l-1.5776367-17.3466797c0.4082031,0.5390625,1.0307617,0.8779297,1.7368164,0.8779297 c0.7680664,0,1.4394531-0.4082031,1.8408203-1.0244141L980.7099609,1047.5009766z M1004.2294922,960.625l-0.8994141-0.1171875 c-0.2421875-0.1801758-0.4013672-0.4814453-0.4013672-0.8134766c0-0.5537109,0.421875-1.0029297,0.9550781-1.0029297 c0.5253906,0,0.9482422,0.4492188,0.9482422,1.0029297C1004.8320313,960.1201172,1004.5820313,960.4799805,1004.2294922,960.625z M1023.3271484,1086.8652344h-4.4287109v-4.9472656h4.4287109V1086.8652344z M1045.046875,1112.21875h-7.1191406 l3.5214844-11.8876953L1045.046875,1112.21875z M1044.0576172,1115.7480469l-1.5908203,5.3691406l-2.7402344-5.3691406 H1044.0576172z M1036.8271484,1099.2724609h3.5224609l-3.5224609,11.8876953V1099.2724609z M1055.3222656,1072.4042969 c-0.3525391,0-0.6357422-0.3046875-0.6357422-0.6855469c0-0.3730469,0.2832031-0.6777344,0.6357422-0.6777344 c0.3535156,0,0.6445313,0.3046875,0.6445313,0.6777344 C1055.9667969,1072.0996094,1055.6757813,1072.4042969,1055.3222656,1072.4042969z M1043.0957031,1025.234375 c0.4570313,0,0.8310547,0.4003906,0.8310547,0.8847656c0,0.4921875-0.3740234,0.8867188-0.8310547,0.8867188 c-0.4628906,0-0.8369141-0.3945313-0.8369141-0.8867188 C1042.2587891,1025.6347656,1042.6328125,1025.234375,1043.0957031,1025.234375z M1033.0908203,1027.3242188h6.8359375 c0.4912109,1.3066406,1.7373047,2.296875,3.1416016,2.296875c1.3769531,0,2.5537109-0.8720703,3.0654297-2.1171875 l10.9052734,42.375c-0.4433594-0.4501953-1.0449219-0.7265625-1.7021484-0.7265625 c-1.3564453,0-2.4560547,1.1552734-2.4560547,2.5878906c0,0.1660156,0.0751953,0.4287109,0.1035156,0.5878906 l-19.8935547-0.0556641V1027.3242188z M1035.8310547,1115.7480469l-2.2910156,5.5839844l-2.7607422-5.5839844H1035.8310547z M1029.015625,1099.2724609v12.2890625l-3.7226563-12.2890625H1029.015625z M1023.9912109,1099.6669922l3.8056641,12.5517578 h-7.5214844L1023.9912109,1099.6669922z M1027.3544922,1115.7480469l-3.1484375,6.5800781l-3.3564453-6.5800781H1027.3544922z M1021.1611328,1128.6865234h-6.9677734l5.8613281-11.3818359l3.3974609,6.6005859L1021.1611328,1128.6865234z M1023.6591797,1128.6865234l1.0791016-2.2548828l1.1630859,2.2548828H1023.6591797z M1027.4375,1128.6865234 l-1.9443359-3.8330078l4.0683594-8.4902344l3.2939453,6.6425781l-2.3320313,5.6806641H1027.4375z M1031.9414063,1128.6865234 l1.6953125-4.0957031l2.0283203,4.0957031H1031.9414063z M1040.2246094,1128.6865234H1037.1875l-2.8583984-5.7705078 l2.9199219-7.0722656l4.2832031,8.4140625L1040.2246094,1128.6865234z M1041.6367188,1128.6865234l0.7880859-2.6708984 l1.3632813,2.6708984H1041.6367188z M1046.3203125,1128.6865234l-2.9609375-5.8193359l1.8613281-6.2753906l6.1582031,12.0947266 H1046.3203125z"/> </g> <g> <g> <polygon points="1255.5507813,1109.0009766 1256.7900391,1059.0839844 1263.3847656,1059.0839844 1264.6230469,1109.0009766 "/> <polygon points="1281.0009766,1091.2109375 1274.46875,1091.1972656 1274.46875,1107.8320313 1244.5078125,1107.8320313 1244.5078125,1134.9902344 1281.0009766,1134.9902344 "/> </g> <polygon points="1159.3847656,1094.3320313 1159.3847656,1069.2070313 1160.8925781,1069.2070313 1160.8925781,1062.8476563 1166.296875,1062.8476563 1166.296875,1058.0527344 1168.3662109,1058.0527344 1168.3662109,1062.8476563 1169.3212891,1062.8476563 1169.3212891,1069.2070313 1173.140625,1069.2070313 1173.140625,1067.0625 1178.3925781,1067.0625 1178.3925781,1069.2070313 1181.0976563,1069.2070313 1181.0976563,1089.4121094 1185.8652344,1089.4121094 1185.8652344,1096.9267578 1190.3076172,1096.9267578 1201.8144531,1085.2119141 1202.9013672,1096.2695313 1212.6640625,1085.2119141 1213.7578125,1096.2695313 1223.5283203,1085.2119141 1224.6074219,1096.2695313 1234.3847656,1085.2119141 1235.4638672,1096.9267578 1237.90625,1096.9267578 1237.90625,1120.328125 1239.4433594,1120.328125 1239.4433594,1118.2871094 1240.2314453,1118.2871094 1242.1894531,1066.5566406 1241.6503906,1066.5566406 1241.6503906,1064.2041016 1248.2998047,1064.2041016 1248.2998047,1066.5566406 1247.7597656,1066.5566406 1249.71875,1118.2871094 1250.5693359,1118.2871094 1250.5693359,1120.328125 1252.4726563,1120.328125 1252.4726563,1143.6191406 1157.0732422,1143.6191406 1157.0732422,1094.3320313 "/> <path d="M1108.7070313,1088.6367188h8.5380859v-4.1650391h-1.9169922l-0.8164063-30.5283203h-2.84375l-0.8232422,30.5283203 h-2.1376953V1088.6367188z M1073.2304688,1068.4042969v66.5859375h92.7832031v-44.5957031h-13.375l-33.234375-21.9902344 v21.9902344h-12.9257813L1073.2304688,1068.4042969z M1157.1982422,1121.3798828h4.5527344v5.2314453h-4.5527344V1121.3798828z M1157.1982422,1110.703125h4.5527344v5.2382813h-4.5527344V1110.703125z M1157.1982422,1100.0195313h4.5527344v5.2382813 h-4.5527344V1100.0195313z"/> <path d="M925.3183594,1092.3808594h18.9194336v-7.3769531h-4.7485352l-1.8056641-67.6025391h-6.3037109l-1.8061523,67.6025391 h-4.2553711V1092.3808594z M860.2475586,1070.1962891v64.7939453h90.2866211v-44.0908203h-31.0698242v-0.0410156h-0.0688477 v-0.1523438l-20.3574219-20.5097656v19.5478516l-19.3955078-19.5478516v19.5478516L860.2475586,1070.1962891z"/> <polygon points="848.4570313,1094.6367188 848.4570313,1084.3056641 846.8447266,1084.3056641 846.8447266,1094.1660156 838.7558594,1091.7919922 838.7558594,1075.1992188 836.6108398,1075.1992188 836.6108398,1091.1621094 828.0585938,1088.6650391 812.0258789,1090.9482422 812.0258789,1077.5722656 810.4135742,1077.5722656 810.4135742,1091.1835938 794.637207,1093.4462891 794.7202148,1084.6855469 798.8652344,1084.6855469 787.503418,1079.9394531 787.503418,1064.9033203 788.1884766,1064.9033203 788.1884766,1062.3574219 787.503418,1062.3574219 787.503418,1061.3398438 781.3105469,1061.3398438 781.3105469,1062.3574219 780.6323242,1062.3574219 780.6323242,1064.9033203 781.3105469,1064.9033203 781.3105469,1077.3447266 766.3920898,1071.1103516 766.3920898,1134.9902344 768.765625,1134.9902344 771.3466797,1115.0273438 771.3466797,1138.4990234 861.7421875,1138.4990234 861.7421875,1099.75 865.8935547,1099.75 "/> <polygon points="1068.0341797,1101.2441406 1068.0341797,1105.8525391 1059.4472656,1105.8525391 1059.4472656,1126.7841797 1017.9511719,1126.7841797 1017.9511719,1101.2441406 1013.4882813,1101.2441406 1013.4882813,1088.4638672 1005.1425781,1088.4638672 1005.1425781,1069.90625 998.6733398,1069.90625 998.6733398,1064.4326172 957.2050781,1064.4326172 957.2050781,1069.90625 949.2128906,1069.90625 949.2128906,1134.9902344 1074.7597656,1134.9902344 1074.7597656,1101.2441406 "/> </g> <g> <g> <polygon points="794.125,1134.796875 792.769043,1080.4101563 785.5449219,1080.4101563 784.1889648,1134.796875 "/> <polygon points="806.2275391,1156.0605469 806.2275391,1133.7382813 773.3945313,1133.7382813 773.3945313,1115.5400391 766.3920898,1115.5400391 766.3920898,1156.0605469 "/> </g> <polygon points="903.0996094,1156.0605469 903.0996094,1109.5195313 900.5673828,1109.5195313 900.5673828,1082.0429688 898.9204102,1082.0429688 898.9204102,1075.0820313 892.9975586,1075.0820313 892.9975586,1069.8369141 890.7275391,1069.8369141 890.7275391,1075.0820313 889.6899414,1075.0820313 889.6899414,1082.0429688 885.5039063,1082.0429688 885.5039063,1079.6904297 879.7539063,1079.6904297 879.7539063,1082.0429688 876.7783203,1082.0429688 876.7783203,1104.1435547 871.5610352,1104.1435547 871.5610352,1112.3632813 866.6894531,1112.3632813 854.0820313,1099.5419922 852.8994141,1111.6445313 842.1948242,1099.5419922 841.0048828,1111.6445313 830.300293,1099.5419922 829.1103516,1111.6445313 818.4052734,1099.5419922 817.2226563,1112.3632813 814.5375977,1112.3632813 814.5375977,1137.9589844 812.8632813,1137.9589844 812.8632813,1135.7236328 811.9980469,1135.7236328 809.8535156,1079.1367188 810.4414063,1079.1367188 810.4414063,1076.5693359 803.1552734,1076.5693359 803.1552734,1079.1367188 803.75,1079.1367188 801.5981445,1135.7236328 800.6640625,1135.7236328 800.6640625,1137.9589844 798.5883789,1137.9589844 798.5883789,1156.0605469 "/> <path d="M993.8642578,1156.0605469v-65.4589844l-36.4169922,24.0527344h-2.4428711v-6.4628906h-2.3457031l-0.8925781-33.4072266 h-3.1206055l-0.8925781,33.4072266h-2.1103516v6.4628906h-2.3544922v-24.0527344l-36.4238281,24.0527344h-14.6484375v41.40625 H993.8642578z M896.8930664,1125.1923828H901.875v5.7294922h-4.9819336V1125.1923828z M896.8930664,1136.8730469H901.875 v5.7285156h-4.9819336V1136.8730469z M896.8930664,1148.5527344H901.875v5.7148438h-4.9819336V1148.5527344z"/> <polygon points="1227.2021484,1156.0605469 1227.2021484,1092.5537109 1205.953125,1113.9414063 1205.953125,1092.5537109 1184.703125,1113.9414063 1184.703125,1092.5537109 1162.4013672,1115 1162.4013672,1115.1591797 1162.3320313,1115.1591797 1162.3320313,1115.2148438 1155.9179688,1115.2148438 1155.9179688,1108.7519531 1151.2539063,1108.7519531 1149.2753906,1052.9257813 1142.3691406,1052.9257813 1140.390625,1108.7519531 1135.1875,1108.7519531 1135.1875,1115.2148438 1128.2890625,1115.2148438 1128.2890625,1156.0605469 "/> <polygon points="1225.5625,1156.0605469 1281.0009766,1156.0605469 1281.0009766,1100.6347656 1280.0322266,1100.6347656 1280.0322266,1115.2773438 1262.4638672,1112.7578125 1253.1015625,1115.5058594 1253.1015625,1098.0332031 1250.7421875,1098.0332031 1250.7421875,1116.1835938 1241.8857422,1118.7851563 1241.8857422,1107.9980469 1240.1210938,1107.9980469 1240.1210938,1119.296875 1221.0166016,1124.8886719 1225.5625,1124.8886719 "/> <polygon points="1129.734375,1156.0605469 1129.734375,1092.2421875 1120.9814453,1092.2421875 1120.9814453,1086.2568359 1075.5488281,1086.2568359 1075.5488281,1092.2421875 1068.4628906,1092.2421875 1068.4628906,1112.5439453 1059.3154297,1112.5439453 1059.3154297,1126.5214844 1042.9921875,1126.5214844 1042.9921875,1126.6591797 1018.5253906,1126.6591797 1018.5253906,1126.5214844 1012.6162109,1126.5214844 1012.6162109,1085.2949219 1001.3652344,1085.2949219 1001.3652344,1126.5214844 992.1962891,1126.5214844 992.1962891,1156.0605469 "/> </g> <rect x="1040.9921875" y="1104.3994141" width="25.6298828" height="19.4921875"/> <rect x="857.9848633" y="1053.7773438" width="0.3876953" height="6.9609375"/> <rect x="858.3725586" y="1058.6552734" width="23.4360352" height="1.3564453"/> <rect x="872.5507813" y="1049.0019531" width="5.5214844" height="13.1894531"/> <rect x="855.6181641" y="1054.0947266" width="2.5605469" height="4.7744141"/> <g> <polygon points="1032.9248047,1156.0605469 1032.9248047,1154.2402344 1040.390625,1154.2402344 1040.390625,1156.0605469 1041.9130859,1156.0605469 1041.9130859,1154.2402344 1051.5996094,1154.2402344 1051.5996094,1156.0605469 1053.1152344,1156.0605469 1053.1152344,1154.2402344 1062.8027344,1154.2402344 1062.8027344,1156.0605469 1064.3251953,1156.0605469 1064.3251953,1154.2402344 1074.0058594,1154.2402344 1074.0058594,1156.0605469 1075.5273438,1156.0605469 1075.5273438,1154.2402344 1085.2148438,1154.2402344 1085.2148438,1156.0605469 1086.7373047,1156.0605469 1086.7373047,1154.2402344 1094.203125,1154.2402344 1094.203125,1156.0605469 1099.2402344,1156.0605469 1099.2402344,1149.2587891 1025.6035156,1149.2587891 1025.6035156,1156.0605469 "/> <path d="M1101.0048828,1156.0605469h25.2148438v-29.8027344h-6.4003906v-4.0195313h-33.234375v4.0195313h-5.1826172v21.1396484 h19.6025391V1156.0605469z M1110.0625,1129.2265625h11.5839844v5.7851563H1110.0625V1129.2265625z M1110.0625,1139.1904297 h11.5839844v5.7919922H1110.0625V1139.1904297z M1097.1025391,1129.2265625h11.4384766v5.7851563h-11.4384766V1129.2265625z M1095.5800781,1144.9824219H1085.0625v-5.7919922h10.5175781V1144.9824219z M1095.5800781,1135.0117188H1085.0625v-5.7851563 h10.5175781V1135.0117188z M1097.1025391,1144.9824219v-5.7919922h11.4384766v5.7919922H1097.1025391z"/> </g> <g> <path d="M834.6113281,1156.0605469h9.6455078v-1.7783203h14.0463867v1.7783203h48.7612305v-16.4472656l-31.3037109-4.1113281 v-9.9912109h-1.3007813v9.8251953l-12.8491211-1.6806641l-6.8500977,1.8330078v-11.7207031h-1.7231445v12.1845703 l-6.4838867,1.7441406v-7.2382813h-1.2866211v7.5771484l-13.9775391,3.7568359h3.3217773V1156.0605469z M867.671875,1142.0761719 h20.1083984v2.0341797H867.671875V1142.0761719z M867.671875,1148.7539063h20.1083984v2.9257813H867.671875V1148.7539063z"/> <path d="M885.0053711,1130.7353516h3.3286133v4.234375l20.7998047,2.4560547v18.6347656h34.015625v-4.9755859h-13.2226563 v-2.0341797h13.2226563v-5.2304688l-14.8764648-4.2490234v-11.1474609h3.8540039l-16.800293-9.2998047l-16.2470703,6.2207031 v-9.1269531h0.5463867v-1.875h-0.5463867v-0.7470703h-4.9682617v0.7470703h-0.5463867v1.875h0.5463867v11.0302734 L885.0053711,1130.7353516z M920.4746094,1129.5800781h4.0273438v1.8955078h-4.0273438V1129.5800781z M920.4746094,1134.3398438 h4.0273438v1.8886719h-4.0273438V1134.3398438z M920.4746094,1139.09375h4.0273438v1.8964844h-4.0273438V1139.09375z M920.4746094,1143.8613281h4.0273438V1145.75h-4.0273438V1143.8613281z M920.4746094,1148.6220703h4.0273438v1.8886719 h-4.0273438V1148.6220703z"/> </g> <path d="M1193.2207031,1156.0605469h2.0625v-24.9726563c0-0.7333984,0.3251953-1.3144531,0.7402344-1.3144531 c0.4082031,0,0.7402344,0.5810547,0.7402344,1.3144531v24.9726563h8.296875v-27.2626953h0.0478516 c-0.0136719-0.0351563-0.0341797-0.0556641-0.0478516-0.0908203v-0.1796875h-0.0898438 c-1.09375-2.2695313-2.9277344-3.875-5.0722656-4.1855469v-2.2285156c0-1.2382813,0.3525391-2.3457031,0.8652344-3.0859375 c0.5253906-0.7402344,1.140625-1.09375,1.75-1.09375h8.6425781c0.609375,0,1.2177734,0.3535156,1.7441406,1.09375 c0.5185547,0.7402344,0.8710938,1.8476563,0.8710938,3.0859375v21.4160156h-0.0546875 c-0.5820313,0-1.0664063,0.3945313-1.0664063,0.8789063v0.7265625c0,0.484375,0.484375,0.8789063,1.0664063,0.8789063h0.0546875 v1.9160156c-1.9511719,0.4638672-3.5908203,2.0068359-4.6083984,4.1103516v4.0205078h2.2138672v-2.3046875 c0-0.6992188,0.3330078-1.2587891,0.7412109-1.2587891s0.7402344,0.5595703,0.7402344,1.2587891v2.3046875h7.9570313v-4.0205078 c-1.0996094-2.2763672-2.9267578-3.8818359-5.0712891-4.1933594v-1.8408203 c0.5605469-0.0341797,0.9960938-0.4003906,0.9960938-0.8710938v-0.7265625c0-0.4638672-0.4355469-0.8378906-0.9960938-0.8720703 v-21.4228516c0-1.6533203-0.4501953-3.1621094-1.2460938-4.3105469c-0.78125-1.1416016-1.9580078-1.9589844-3.3417969-1.9589844 h-8.6425781c-1.3837891,0-2.5742188,0.8173828-3.3486328,1.9589844c-0.7890625,1.1484375-1.2392578,2.6572266-1.2460938,4.3105469 v2.3115234c-1.9443359,0.4638672-3.5839844,1.9921875-4.6083984,4.1025391h-0.0898438v0.1738281 c-0.0136719,0.0341797-0.0273438,0.0615234-0.0410156,0.0966797h0.0410156V1156.0605469z"/> <path d="M1160.3671875,1156.0605469v-8.6914063c0-0.4912109,0.3388672-0.8789063,0.7470703-0.8789063 s0.7412109,0.3876953,0.7412109,0.8789063v8.6914063h23.3105469v-9.6181641c0,0-5.9707031-8.1103516-12.9941406-8.5869141 v-8.171875c0-1.2109375,0.3876953-2.2832031,0.9755859-3.03125c0.5878906-0.7402344,1.3349609-1.1484375,2.1455078-1.1484375 h9.8525391c0.8027344,0,1.5498047,0.4082031,2.1386719,1.1484375c0.5947266,0.7480469,0.9824219,1.8203125,0.9824219,3.03125 v19.2011719h-0.0136719v7.1757813h1.9853516v-6.5185547h0.0078125v-19.8583984 c-0.0078125-3.3222656-2.1318359-6.2275391-5.1005859-6.2626953h-9.8525391 c-2.9755859,0.0351563-5.09375,2.9404297-5.0996094,6.2626953v8.2402344 c-6.9755859,0.9072266-12.2890625,8.5185547-12.2890625,8.5185547v9.6181641H1160.3671875z"/> <g> <path d="M1276.5664063,1144.6503906c-0.5058594-0.7128906-1.0869141-1.0517578-1.6679688-1.0517578h-2.0205078v12.3300781 c0.8164063-0.3740234,1.6806641-0.6845703,2.5732422-0.8857422v-1.1621094h1.9453125v-6.2695313 C1277.4033203,1146.4355469,1277.0566406,1145.3691406,1276.5664063,1144.6503906z"/> <path d="M1275.4511719,1153.8808594h1.9453125v-6.2695313c0.0068359-1.1757813-0.3398438-2.2421875-0.8300781-2.9609375 c-0.5058594-0.7128906-1.0869141-1.0517578-1.6679688-1.0517578h-2.0205078v12.3300781 c0.8164063-0.3740234,1.6806641-0.6845703,2.5732422-0.8857422V1153.8808594z"/> <path d="M1275.4511719,1153.8808594h1.9453125v-6.2695313c0.0068359-1.1757813-0.3398438-2.2421875-0.8300781-2.9609375 c-0.5058594-0.7128906-1.0869141-1.0517578-1.6679688-1.0517578h-2.0205078v12.3300781 c0.8164063-0.3740234,1.6806641-0.6845703,2.5732422-0.8857422V1153.8808594z"/> <path d="M1256.3330078,1143.5986328h14.6416016v12.4619141h10.0263672v-2.1796875h-1.7021484v-6.2695313 c0-1.5771484-0.4355469-3.0302734-1.1894531-4.1308594c-0.7548828-1.0996094-1.8896484-1.8886719-3.2109375-1.8886719h-2.0205078 v-10.0195313c-0.0068359-3.1972656-2.0478516-5.9921875-4.8994141-6.0195313h-5.7705078 c-0.1943359-2.7890625-2.3945313-4.9960938-5.0859375-4.9960938s-4.8916016,2.2070313-5.0859375,4.9960938h-7.9775391 c-2.8515625,0.0273438-4.8925781,2.8222656-4.8994141,6.0195313v2.5673828h-3.390625v1.7714844 c-1.8125,0.4150391-3.5224609,1.0791016-5.1201172,1.9443359c0.4775391,0.4492188,1.1210938,0.8789063,1.9443359,1.2519531 c1.8681641,0.8652344,4.5048828,1.4042969,7.4169922,1.4042969c2.9140625,0,5.5498047-0.5390625,7.4179688-1.4042969 c0.8789063-0.4013672,1.5566406-0.8652344,2.0410156-1.3496094c-1.5351563-0.8164063-3.1757813-1.453125-4.9052734-1.8466797 v-1.7714844H1241.0625v-2.5673828c0-1.1621094,0.3730469-2.1933594,0.9335938-2.9130859 c0.5742188-0.7128906,1.2871094-1.1005859,2.0625-1.1074219h8.1992188 c0.6503906,2.1865234,2.5810547,3.7714844,4.8642578,3.7714844s4.2138672-1.5849609,4.8642578-3.7714844h5.9921875 c0.7685547,0.0068359,1.4882813,0.3945313,2.0556641,1.1074219c0.5673828,0.7197266,0.9404297,1.7509766,0.9404297,2.9130859 v10.0195313h-16.3847656c-1.2871094-1.3144531-2.7470703-2.4628906-4.3320313-3.3974609 c-0.5947266,0.6777344-1.4599609,1.2587891-2.484375,1.7363281c-2.0195313,0.9208984-4.7460938,1.4736328-7.7636719,1.4736328 c-3.0166016,0-5.7421875-0.5527344-7.7636719-1.4736328c-0.96875-0.4423828-1.7851563-0.9892578-2.3798828-1.6123047 c-5.6396484,3.4042969-9.5908203,9.5078125-10.2470703,16.6347656h41.0732422 C1260.2978516,1150.6835938,1258.7480469,1146.78125,1256.3330078,1143.5986328z M1257.2880859,1125.4140625 l-0.9619141-2.2421875l-0.4287109,0.1933594l0.8720703,2.0488281h-2.9335938 c0.0957031-1.875,1.5566406-3.3632813,3.3623047-3.3632813c1.7988281,0,3.2519531,1.4882813,3.3486328,3.3632813H1257.2880859z M1272.8779297,1143.5986328h2.0205078c0.5810547,0,1.1621094,0.3388672,1.6679688,1.0517578 c0.4902344,0.71875,0.8369141,1.7851563,0.8300781,2.9609375v6.2695313h-1.9453125v1.1621094 c-0.8925781,0.2011719-1.7568359,0.5117188-2.5732422,0.8857422V1143.5986328z"/> </g> <path d="M934.0297852,1156.0605469v-7.140625h9.4467773v7.140625h1.1347656v-7.140625h10.7597656v7.140625h1.1347656v-7.140625 h9.2514648v7.140625h18.8833008v-38.2236328h-13.5966797v24.3085938h-41.5463867v13.9150391H934.0297852z M973.9433594,1123.0195313h7.6733398v3.7919922h-7.6733398V1123.0195313z M973.9433594,1127.9951172h7.6733398v3.5908203 h-7.6733398V1127.9951172z M973.9433594,1132.7832031h7.6733398v3.5771484h-7.6733398V1132.7832031z M973.9433594,1137.5576172 h7.6733398v3.390625h-7.6733398V1137.5576172z"/> </g> <path fill-rule="evenodd" clip-rule="evenodd" fill="#FFFFFF" d="M1231.7832031,962.6699219L1231.7832031,962.6699219 c0.0410156,0.0795898,0.0830078,0.1484375,0.1240234,0.2246094l0.1318359-0.0273438v-0.1108398 C1231.9492188,962.7216797,1231.8662109,962.6943359,1231.7832031,962.6699219L1231.7832031,962.6699219z"/> <path fill-rule="evenodd" clip-rule="evenodd" fill="#FFFFFF" d="M1247.2207031,977.9599609h0.0136719 c-0.0419922-0.0551758-0.0898438-0.1171875-0.1318359-0.1660156c0.0625,0.0209961,0.1318359,0.027832,0.1865234,0.034668 L1247.2207031,977.9599609L1247.2207031,977.9599609z"/> <path fill-rule="evenodd" clip-rule="evenodd" fill="#FFFFFF" d="M1239.7753906,982.3818359L1239.7753906,982.3818359 c0.0205078,0.0415039,0.0410156,0.1035156,0.0761719,0.1523438c-0.0761719,0.1591797-0.1455078,0.3251953-0.2080078,0.4775391 C1239.6777344,982.8037109,1239.7197266,982.5825195,1239.7753906,982.3818359L1239.7753906,982.3818359z"/> <path fill-rule="evenodd" clip-rule="evenodd" fill="#FFFFFF" d="M1274.4902344,868.8178711L1274.4902344,868.8178711 c0.0683594-0.0141602,0.1445313-0.03125,0.2353516-0.034668c-0.0146484-0.0556641-0.0214844-0.1074219-0.0214844-0.1557617 c-0.0966797-0.0209961-0.1865234-0.027832-0.2558594-0.034668c-0.0478516,0.0625-0.0830078,0.1279297-0.1103516,0.1938477 C1274.3789063,868.8037109,1274.4208984,868.8105469,1274.4902344,868.8178711L1274.4902344,868.8178711z"/> <path fill-rule="evenodd" clip-rule="evenodd" fill="#FFFFFF" d="M1272.9677734,868.1669922L1272.9677734,868.1669922 c0.0419922-0.0239258,0.1035156-0.0546875,0.1728516-0.0688477c-0.0693359-0.0727539-0.0693359-0.0727539-0.2148438-0.0620117 C1272.9394531,868.0703125,1272.9394531,868.1220703,1272.9677734,868.1669922L1272.9677734,868.1669922z"/> <path fill-rule="evenodd" clip-rule="evenodd" fill="#FFFFFF" d="M1271.4804688,867.1435547v0.0136719 c0.0615234-0.0136719,0.1308594-0.0136719,0.2207031-0.0136719c-0.0341797-0.03125-0.0546875-0.0556641-0.0761719-0.0693359 C1271.4726563,867.1123047,1271.4726563,867.1123047,1271.4804688,867.1435547L1271.4804688,867.1435547z"/> <path fill="none" d="M983.2705078,1130.7353516l0.2421875,0.2490234l3.2866211,1.4599609 c2.6362305-1.5712891,9.4521484-1.0244141,10.7807617-5.6259766c1.2729492-4.3730469-6.1030273-7.4726563-9.8256836-9.7285156 l-6.2485352,0.0966797l-1.8613281,2.7197266C977.1953125,1123.4072266,980.34375,1128.9570313,983.2705078,1130.7353516z"/> <path fill="none" d="M978.8144531,1117.2490234c-0.0556641-1.1630859-0.1591797-2.2490234-1.4047852-2.9960938 l-1.1206055-0.6923828c-0.8857422-0.5322266-1.0380859,0.4638672-2.7539063-0.3730469 c-1.5571289,3.1484375-0.1875,4.6982422,1.7226563,6.6494141 C977.0292969,1119.8164063,977.4926758,1119.3867188,978.8144531,1117.2490234z"/> <path fill="#FFFFFF" d="M1198.5976563,950.9521484c0.0136719,0.0307617,0.0273438,0.0620117,0.0410156,0.0966797 c-0.0625,0.0205078-0.1308594,0.0551758-0.1933594,0.0830078 C1198.4931641,951.0693359,1198.5488281,951.0141602,1198.5976563,950.9521484z"/> <path fill="#FFFFFF" d="M1276.7177734,1018.9375c-0.0556641,0-0.1035156,0-0.1591797,0 c0-0.0214844,0-0.0419922-0.0068359-0.0556641C1276.6142578,1018.8955078,1276.6621094,1018.9238281,1276.7177734,1018.9375z"/> </g> </svg>